<svg  xmlns="http://www.w3.org/2000/svg" x="0px" y="0px" viewBox="0 0 18.01 24" style="enable-background:new 0 0 18.01 24;" xml:space="preserve">
	<path style="fill:#4752DC;" d="M18.01,17.79v-3.36c0-0.54-0.48-1.03-1.01-1.03c-0.18,0-0.36,0.05-0.51,0.15
		c-0.06-0.66-0.6-1.18-1.26-1.18c-0.32,0-0.61,0.12-0.83,0.33c-0.18-0.49-0.64-0.84-1.18-0.84c-0.33,0-0.62,0.13-0.85,0.34
		l-0.41-4.24c-0.01-0.11-0.03-0.21-0.05-0.31l0,0l2.48-2.4L9.42,4.5L7.2,0L4.97,4.49L0,5.2l3.59,3.51l-0.86,4.94l4.45-2.32
		l2.68,1.42l-0.03-0.92l-2.65-1.4l-3.39,1.77l0.65-3.76L1.72,5.76L5.5,5.22L7.2,1.8l1.68,3.43l3.78,0.56l-1.16,1.12
		c-0.22-0.19-0.48-0.23-0.66-0.23c-0.67,0-1.15,0.54-1.15,1.3l0.22,6.34l-0.01,0c0,0,0.11,2.09-0.24,2.27
		c-0.19,0.1-0.19,0.1-0.56-0.45c-0.27-0.42-0.69-1.04-1.47-1.93c-0.76-0.73-1.37-0.95-1.8-0.64c-0.61,0.44-0.46,1.79-0.23,2.27
		l3.34,6.1l-0.85,0c-0.13,0-0.24,0.11-0.24,0.24v1.58c0,0.13,0.11,0.24,0.24,0.24c0.13,0,0.24-0.11,0.24-0.24v-1.34l4.6-0.02
		l4.44,0.02v1.34c0,0.13,0.11,0.24,0.24,0.24s0.24-0.11,0.24-0.24v-1.58c0-0.13-0.11-0.24-0.24-0.24l-0.63,0
		c0.11-0.73,0.3-1.2,0.49-1.65C17.74,19.66,18.01,19.01,18.01,17.79z M11.63,7.03C11.63,7.03,11.63,7.03,11.63,7.03
		C11.63,7.03,11.63,7.03,11.63,7.03z M16.53,21.66h-5.49l0,0l-0.12,0h-0.01c0,0-0.01,0-0.01,0l-1.51,0.04
		c-0.46-0.83-3.02-5.44-3.33-6.09c-0.2-0.42-0.24-1.44,0.08-1.67c0.2-0.14,0.64,0.08,1.16,0.58c0.74,0.85,1.14,1.46,1.41,1.86
		c0.38,0.57,0.6,0.91,1.18,0.61c0.69-0.36,0.6-1.76,0.54-2.3L10.2,7.97c0-0.39,0.2-0.78,0.65-0.78c0.13,0,0.53,0,0.62,0.8l0.5,5.17
		c0,0.02,0.01,0.03,0.01,0.04v1.38c0,0.13,0.11,0.24,0.24,0.24c0.13,0,0.24-0.11,0.24-0.24v-1.41c0-0.01,0.01-0.02,0.01-0.04
		c0-0.43,0.34-0.78,0.76-0.78c0.42,0,0.76,0.35,0.76,0.78v0.52c0,0.01,0,0.02,0.01,0.03v1.22c0,0.13,0.11,0.24,0.24,0.24
		c0.13,0,0.24-0.11,0.24-0.24v-1.16c0.01-0.02,0.02-0.05,0.02-0.08c0-0.43,0.34-0.78,0.76-0.78c0.42,0,0.76,0.35,0.76,0.78v0.18
		c-0.01,0.03-0.02,0.06-0.02,0.09v1.47c0,0.13,0.11,0.24,0.24,0.24c0.13,0,0.24-0.11,0.24-0.24v-0.83c0.02-0.04,0.04-0.08,0.04-0.13
		c0-0.27,0.24-0.52,0.5-0.52c0.25,0,0.5,0.26,0.5,0.52v3.36c0,1.12-0.23,1.69-0.48,2.29C16.84,20.52,16.65,20.98,16.53,21.66z"/>
</svg>
