<svg xmlns="http://www.w3.org/2000/svg" width="28" height="36" viewBox="0 0 27.96 35.72">
    <path fill="#5351cb" d="M27.84,6.56a.5.5,0,0,0-.49-.49c-.08,0-8.53-.31-12.93-5.8A.51.51,0,0,0,14.16,0a.5.5,0,0,0-.29,0L13.8,0a.5.5,0,0,0-.25.21C9.16,5.75.68,6.06.6,6.07a.5.5,0,0,0-.49.49c0,1.68-.24,16.46,0,17.85S8.72,32,13.67,35.62v0l.05,0v0a.48.48,0,0,0,.25.07.52.52,0,0,0,.26-.07l.1-.07c5-3.62,13.26-9.84,13.5-11.17S27.87,8.24,27.84,6.56Zm-1,17.64c-.35.91-6.69,5.88-12.88,10.4C7.79,30.08,1.45,25.11,1.1,24.23.93,23.28,1,13.6,1.11,7,3,6.9,9.82,6.07,14,1.29,18.13,6.07,25,6.9,26.85,7,26.95,13.6,27,23.28,26.86,24.2Z"/>
    <path fill="#5351cb" d="M13.81,6.07A.5.5,0,0,0,13,5.44c-3.24,4-9.12,3.93-9.16,3.94a.47.47,0,0,0-.36.14.5.5,0,0,0-.15.36v9.69a.5.5,0,0,0,1,0v-9.2C5.95,10.3,10.81,9.78,13.81,6.07Z"/>
    <path fill="#5351cb" d="M18.81,13.81a.5.5,0,0,0-.7.06l-4.77,5.71-2.24-2.24a.5.5,0,0,0-.71.71L13,20.67a.5.5,0,0,0,.35.15h0a.5.5,0,0,0,.36-.18l5.13-6.12A.5.5,0,0,0,18.81,13.81Z"/>
    <path fill="#5351cb" d="M24.55,9.19a.5.5,0,0,0-.5.5v12.4c-3.74,3.23-9.24,8-9.54,8.2a.5.5,0,0,0,.57.82c.19-.12,6.22-5.32,9.8-8.41a.5.5,0,0,0,.17-.38V9.69A.5.5,0,0,0,24.55,9.19Z"/>
</svg>
