<svg xmlns="http://www.w3.org/2000/svg" width="38" height="24" viewBox="0 0 38.75 24.08">
    <path fill="#5351cb" d="M38.25,5.33H19.79L16.06.53a.5.5,0,0,0-.38-.19L.51,0A.48.48,0,0,0,0,.49.5.5,0,0,0,.49,1l14.93.33,3.11,4H14.38a.5.5,0,0,0-.2,0c-.87-.88-1.66-1.64-2.12-2.07a.5.5,0,1,0-.69.72c2.84,2.7,6,6,6.1,6.72a1.53,1.53,0,0,1-.66,1.35,2,2,0,0,1-2.17.11,12.14,12.14,0,0,1-3.06-2.5.51.51,0,0,0-.5-.14c-2.15.61-4.84-1.77-5.29-2.73a.5.5,0,1,0-.91.42c.55,1.19,3.12,3.44,5.56,3.4a.48.48,0,0,0,0,.1v3.93h-.05a4.67,4.67,0,0,1-5.42-2.41.5.5,0,0,0-.4-.27l-4-.42A.49.49,0,0,0,0,12a.5.5,0,0,0,.45.55L4.2,13A5.86,5.86,0,0,0,9,15.89a5.93,5.93,0,0,0,1.42-.19v7.89a.5.5,0,0,0,.5.5H38.25a.5.5,0,0,0,.5-.5V5.83A.5.5,0,0,0,38.25,5.33Zm-.5,17.75H11.42V11a10.53,10.53,0,0,0,2.83,2.15,3.43,3.43,0,0,0,1.46.34,2.79,2.79,0,0,0,1.7-.57,2.52,2.52,0,0,0,1-2.31c-.12-.75-1.72-2.57-3.34-4.25H37.75Z"/>
    <path fill="#5351cb" d="M19.52,9.54H31.46l2.31,3v4.23l-1.94,2.6H16.74l-3.09-2.08V13.92a.5.5,0,0,0-1,0v3.63a.5.5,0,0,0,.22.42l3.44,2.31a.5.5,0,0,0,.28.08h15.5a.5.5,0,0,0,.4-.2l2.19-2.94a.5.5,0,0,0,.1-.3V12.35a.5.5,0,0,0-.1-.31L32.1,8.74a.5.5,0,0,0-.4-.19H19.52a.5.5,0,0,0,0,1Z"/>
    <circle fill="#5351cb" cx="18.57" cy="15.06" r="1.02"/>
    <circle fill="#5351cb" cx="30.88" cy="15.06" r="1.02"/>
    <path fill="#5351cb" d="M28.68,14.23a4.09,4.09,0,1,0-4.09,4.09A4.1,4.1,0,0,0,28.68,14.23Zm-7.19,0a3.09,3.09,0,1,1,3.09,3.09A3.1,3.1,0,0,1,21.49,14.23Z"/>
</svg>
