<svg xmlns="http://www.w3.org/2000/svg" width="19" height="18" viewBox="0 0 19.25 17.94">
	<path fill="#5351cb" d="M19.18,12.73a.49.49,0,0,0-.25-.35.49.49,0,0,0-.06-.25L15.15,5.47l.65.2.15,0a.5.5,0,0,0,.15-1L12.44,3.6A3,3,0,0,0,6.68,1.85L3.21.79a.5.5,0,1,0-.29,1L6.46,2.83c0,.07,0,.13,0,.2a3,3,0,0,0,5.65,1.51l2.21.67a.48.48,0,0,0-.11.12l-3.81,7.25s0,0,0,0a.49.49,0,0,0,0,.11v0h0a4.3,4.3,0,0,0-.07.66,4.5,4.5,0,1,0,8.93-.7ZM9.47,5.06a2,2,0,1,1,2-2A2,2,0,0,1,9.47,5.06Zm5.17,1.55,3.19,5.7H11.64Zm.11,10.33a3.5,3.5,0,0,1-3.5-3.5s0-.08,0-.12h7s0,.08,0,.13A3.5,3.5,0,0,1,14.75,16.94Z"/>
	<path fill="#5351cb" d="M8.68,9.54a.49.49,0,0,0-.06-.25L4.81,2.47a.49.49,0,0,0-.44-.26.5.5,0,0,0-.44.27L.12,9.74s0,0,0,0a.49.49,0,0,0,0,.11v0h0a4.3,4.3,0,0,0-.07.66,4.5,4.5,0,1,0,8.93-.7A.49.49,0,0,0,8.68,9.54ZM4.39,3.77l3.19,5.7H1.39ZM4.5,14.09A3.5,3.5,0,0,1,1,10.59s0-.08,0-.12H8s0,.08,0,.13A3.5,3.5,0,0,1,4.5,14.09Z"/>
</svg>