<svg xmlns="http://www.w3.org/2000/svg" x="0px" y="0px" width="21" height="21" viewBox="0 0 24 24" style="enable-background:new 0 0 24 24" xml:space="preserve">
    <path fill="currentColor" d="M15.6,19.4l0-4.6l1-0.8l0,4.5L15.6,19.4z M16.9,18.4l0-4.5l0.5-0.3l0,4.5L16.9,18.4z M17.8,17.7l0-4.4l0.1-0.1
		l0,4.4L17.8,17.7z M18.5,17.1v-4.4l0.2-0.2V17L18.5,17.1z M19.5,16.4V12l0.9-0.7v4.3L19.5,16.4z M20.6,15.5v-4.3l0.4-0.3v4.3
		L20.6,15.5z M21.2,15v-4.2l0.1-0.1v4.2L21.2,15z M22.3,14.1l-0.7,0.6v-4.2l0.7-0.5V14.1z"/>
    <path fill="currentColor" d="M23.6,4.3l-5.2-1.8l0,0l-3-1l0,0L10.8,0c-0.2,0-0.3,0-0.5,0.1L0.3,6C0.1,6.1,0,6.3,0,6.5v11.7
		c0,0.2,0.1,0.4,0.4,0.5l13.4,5c0.1,0.1,0.3,0.2,0.4,0.2c0,0,0.1,0,0.1,0c0,0,0.1,0,0.1,0c0.1,0,0.3,0,0.4-0.1l9-7.7
		c0.1-0.1,0.2-0.3,0.2-0.4V4.8C24,4.6,23.9,4.4,23.6,4.3z M22.1,5l-8,5.7L9.7,9.3l7.6-5.9L22.1,5z M10.7,1.2l3.5,1.2L6.1,8.1
		L1.5,6.6L10.7,1.2z M1.1,7.7l4.5,1.5l0.1,3l3.6,1.2l-0.1-3l4.5,1.5v10.8L1.1,17.8C1.1,17.8,1.1,7.7,1.1,7.7z M14.8,22.4V11.6
		l8.1-5.8v9.6L14.8,22.4z"/>
</svg>
