<svg xmlns="http://www.w3.org/2000/svg" width="19" height="21" viewBox="0 0 19.38 21.19">
    <path fill="#161616" d="M16.79,1.81H15.4V.55A.55.55,0,0,0,14.85,0h-.08a.55.55,0,0,0-.55.55V1.81h-3.9V.55A.55.55,0,0,0,9.78,0H9.7a.55.55,0,0,0-.55.55V1.81H5.1V.55A.55.55,0,0,0,4.55,0H4.47a.55.55,0,0,0-.55.55V1.81H2.58A2.58,2.58,0,0,0,0,4.4V18.6a2.58,2.58,0,0,0,2.58,2.58H16.79a2.58,2.58,0,0,0,2.58-2.58V4.4A2.58,2.58,0,0,0,16.79,1.81ZM18.08,18.6a1.29,1.29,0,0,1-1.29,1.29H2.58A1.29,1.29,0,0,1,1.29,18.6V7H18.08Zm0-12.92H1.29V4.4A1.29,1.29,0,0,1,2.58,3.1H3.93v.35A.55.55,0,0,0,4.47,4h.08a.55.55,0,0,0,.55-.55V3.1H9.16v.35A.55.55,0,0,0,9.7,4h.08a.55.55,0,0,0,.55-.55V3.1h3.9v.35a.55.55,0,0,0,.55.55h.08a.55.55,0,0,0,.55-.55V3.1h1.4A1.29,1.29,0,0,1,18.08,4.4Z"/>
    <rect fill="#161616" x="3.48" y="10.46" width="2.17" height="2.17"/>
    <rect fill="#161616" x="8.58" y="10.46" width="2.17" height="2.17"/>
    <rect fill="#161616" x="13.75" y="10.46" width="2.17" height="2.17"/>
    <rect fill="#161616" x="3.48" y="14.65" width="2.17" height="2.17"/>
    <rect fill="#161616" x="8.58" y="14.65" width="2.17" height="2.17"/>
    <rect fill="#161616" x="13.75" y="14.65" width="2.17" height="2.17"/>
</svg>
