<svg xmlns="http://www.w3.org/2000/svg" x="0px" y="0px" viewBox="0 0 27.2 25.4" xml:space="preserve">
    <path fill="#fff" d="M13.5,19.6L1.8,14.3c0,0-1-0.5-1.8-0.9c0,0.6,0.2,1.8,0.8,2.2l11.4,5.1c0.8,0.5,1.8,0.5,2.5,0l11.4-5.1
	c0.6-0.3,0.8-1.5,0.8-2.2l-1.8,0.9L13.5,19.6z"/>
    <path fill="#fff" d="M13.5,24L1.8,18.6c0,0-1-0.5-1.8-0.9c0,0.6,0.2,1.8,0.8,2.2L12.2,25c0.8,0.5,1.8,0.5,2.5,0l11.4-5.1
	c0.6-0.3,0.8-1.5,0.8-2.2l-1.8,0.9L13.5,24z"/>
    <path fill="#fff" d="M27.2,4.4c0-0.2-0.1-0.5-0.4-0.5L10.6,0c-0.3-0.1-0.5,0.1-0.6,0.3c0,0.1,0,0.2,0,0.3c0.3,2,0.4,4,0.2,4.3
	C9.5,5.5,1.4,8,0.5,8.1c-0.1,0-0.3,0.1-0.4,0.2c0,0-0.1,0.1-0.1,0.2l0,0c-0.1,0.1-0.1,0.3,0,0.4c0.1,0.6,0.3,1.5,0.8,1.7l11.4,5.1
	c0.8,0.5,1.8,0.5,2.5,0l11.4-5.1c0.4-0.2,0.6-0.9,0.7-1.5c0,0,0,0,0-0.1V9c0-0.2,0-0.4,0-0.6l0,0L27.2,4.4z M13.5,14.7L1.8,9.3
	L1.1,9c2-0.6,9.3-2.6,9.9-3.5c0.5-0.7,0.3-2.9,0.1-4.3l15,3.6L25.9,9l-0.8,0.4L13.5,14.7z"/>
</svg>
