<svg xmlns="http://www.w3.org/2000/svg" width="24" height="16" viewBox="0 0 24.5 16.19">
	<path fill=="#231f20" d="M24.5,8.94V1.66a1.61,1.61,0,0,0,0-.17V1.44s0-.07,0-.11l0-.06,0-.09,0-.07,0-.08,0-.06,0-.08,0-.06,0-.07,0-.06L24.1.62l0-.05,0,0,0,0L23.93.45,23.87.4,23.79.34l-.07,0-.08,0-.07,0-.08,0-.08,0-.09,0-.08,0-.1,0-.08,0L23,0H1.78A1.72,1.72,0,0,0,0,1.67V7.59H0v6.94a1.48,1.48,0,0,0,0,.17v.05s0,.07,0,.11l0,.06,0,.09,0,.07,0,.08,0,.07,0,.07,0,.07,0,.07,0,.07,0,.06.06.06,0,0,0,0,.07.07.05,0,.08.06.06,0,.09.05.06,0L1,16l.06,0,.1,0,.07,0,.11,0,.07,0,.12,0H22.72a1.72,1.72,0,0,0,1.78-1.66ZM1.37,3.78V1.67c0-.14.17-.29.41-.29H22.71A.48.48,0,0,1,23,1.5a.23.23,0,0,1,.08.16V4.45H1.37ZM23,14.69a.48.48,0,0,1-.33.12H1.79a.47.47,0,0,1-.34-.13.22.22,0,0,1-.08-.16V6.59H23.12v7.94A.24.24,0,0,1,23,14.69Z"/>
	<path fill=="#231f20" d="M11.71,10.67h3.8a.52.52,0,0,0,0-1h-3.8a.52.52,0,1,0,0,1Z"/>
	<path fill=="#231f20" d="M19.9,11.7H11.71a.52.52,0,1,0,0,1H19.9a.52.52,0,1,0,0-1Z"/>
	<path fill=="#231f20" d="M6.64,8H4.89a2.46,2.46,0,1,0,0,4.92H6.64A2.46,2.46,0,0,0,6.64,8Zm0,3.92H4.89A1.46,1.46,0,1,1,4.89,9H6.64a1.46,1.46,0,0,1,0,2.92Z"/>
</svg>
