<svg id="Layer_1" data-name="Layer 1" xmlns="http://www.w3.org/2000/svg" viewBox="0 0 56.88 39.8"><defs><style>.cls-1{fill:#4752dc;}.cls-2{fill:#fff;}.cls-3{fill:#4550e9;}</style></defs><title>Icon-</title><rect class="cls-1" width="56.88" height="39.8"/><g id="_5" data-name="5"><path class="cls-2" d="M31.12,19.9l7.75-7.75A2,2,0,0,0,39,9.29a2,2,0,0,0-2.86.17l-7.75,7.75L20.69,9.47a2,2,0,0,0-2.86-.17A2,2,0,0,0,18,12.15l7.75,7.75L18,27.65a1.91,1.91,0,1,0,2.68,2.68l7.75-7.75,7.75,7.75a1.91,1.91,0,1,0,2.68-2.68Z"/><path class="cls-3" d="M37.78,31.52a2.76,2.76,0,0,1-1.94-.83l-7.4-7.4L21,30.69a2.41,2.41,0,1,1-3.39-3.39l7.4-7.4-7.4-7.4a2.53,2.53,0,0,1-.17-3.56A2.54,2.54,0,0,1,21,9.11l7.4,7.4,7.4-7.4a2.53,2.53,0,0,1,3.56-.17,2.53,2.53,0,0,1-.17,3.56l-7.4,7.4,7.4,7.4a2.53,2.53,0,0,1,.17,3.56A2.28,2.28,0,0,1,37.78,31.52Zm-9.34-9.64L36.55,30a1.42,1.42,0,1,0,2-2L30.42,19.9l8.11-8.11a1.54,1.54,0,0,0,.17-2.15,1.54,1.54,0,0,0-2.15.17l-8.11,8.11L20.33,9.82a1.54,1.54,0,0,0-2.15-.17,1.54,1.54,0,0,0,.17,2.15l8.11,8.11L18.36,28a1.54,1.54,0,0,0-.17,2.15A1.54,1.54,0,0,0,20.33,30Z"/></g></svg>