<svg xmlns="http://www.w3.org/2000/svg" x="0px" y="0px" width="21" height="21" viewBox="0 0 23.3 22.6" style="enable-background:new 0 0 23.3 22.6" xml:space="preserve">
    <path fill="currentColor" d="M23.3,4.3L23.3,4.3c0-0.3-0.2-0.6-0.5-0.6l-4.3,0.1L7.2,3.9c-0.3,0-0.6,0.3-0.5,0.6S6.9,5,7.2,5L22,4.9
	l-2.4,10.7H7.1L5,6.3L4,2.5L0.9,0.1C0.7-0.1,0.3,0,0.1,0.2C-0.1,0.5,0,0.8,0.2,1l2.9,2.2l0.8,3.3L6,15.6l-0.2,0.1
	c-0.7,0.4-1.1,1-1.1,1.8c0,1.1,0.8,2,2,2l0.4,0L6.9,20c0,0.2-0.1,0.3-0.1,0.5c0,1.1,0.9,2,2,2s2-0.9,2-2c0-0.1,0-0.3-0.1-0.5
	l-0.1-0.4h5l-0.1,0.4c0,0.2-0.1,0.3-0.1,0.5c0,1.1,0.9,2,2,2s2-0.9,2-2s-0.9-2-2-2H6.7c-0.5,0-0.9-0.4-0.9-0.9s0.4-0.9,0.9-0.9h13.4
	c0.3,0,0.5-0.2,0.5-0.4l2.5-11C23.2,5.1,23.3,4.5,23.3,4.3z M16.8,19.7c0.4-0.4,1.1-0.5,1.5-0.2c0.3,0.2,0.5,0.6,0.5,1
	c0,0.6-0.5,1.2-1.2,1.2c-0.6,0-1.2-0.5-1.2-1.2C16.5,20.2,16.6,20,16.8,19.7z M8,19.7c0.4-0.5,1.3-0.5,1.7,0
	c0.2,0.2,0.3,0.5,0.3,0.8c0,0.6-0.5,1.2-1.2,1.2c-0.6,0-1.2-0.5-1.2-1.2C7.7,20.2,7.8,20,8,19.7z"/>
</svg>
