<svg id="Layer_1" data-name="Layer 1" xmlns="http://www.w3.org/2000/svg" viewBox="0 0 18.01 18.01"><defs><style>.cls-1{fill:#787878;}</style></defs><title>Иконки</title><path class="cls-1" d="M6.29,4.31l0,0h0Z"/><path class="cls-1" d="M11.67,12.63h0v0l.14-.47a.1.1,0,0,1,0,0l-.06,0H11.7a.18.18,0,0,1,0,.09v0a.42.42,0,0,1-.09.29v0A.15.15,0,0,1,11.67,12.63Z"/><path class="cls-1" d="M2.92,7l0,0L2.83,7l-.05.05h.09l0,0h0A.18.18,0,0,1,3,7H3Z"/><polygon class="cls-1" points="6.46 4.26 6.46 4.26 6.46 4.26 6.46 4.26"/><path class="cls-1" d="M7.58,7.7a.31.31,0,0,1-.14,0l0,0a.31.31,0,0,1-.14.1l0,0a.14.14,0,0,1,0,.05l0,0a.23.23,0,0,1,0,.2.66.66,0,0,1-.23.19h0a.25.25,0,0,1,0,.07l-.07.06v0a.15.15,0,0,1,0,.05.24.24,0,0,1-.08.1l0,.1,0,0v0a.26.26,0,0,1,0,.14.41.41,0,0,1,0,.28H6.49l.15,0,0,.09v0a.25.25,0,0,1,0,.08.16.16,0,0,1,.08.05.15.15,0,0,1,0,.08l0,0a.18.18,0,0,1,.08.09.19.19,0,0,1,0,.07l0,0v0l0,0,0,0,.07,0,.08.06.05,0,0,0,0,0,.12,0a.45.45,0,0,1,.19,0h.06l.07,0,.1,0h.06l.06,0,.18,0h.1a.4.4,0,0,1,.18.11l0,0,0,0h0a.21.21,0,0,1,.24,0h0l.06,0h0a.16.16,0,0,1,0,.1v.06a.15.15,0,0,1,0,.07h0a.19.19,0,0,1,0,.06l0,.06v0a.13.13,0,0,1,0,.06.15.15,0,0,1,0,.1h0l0,0,0,0,0,0h0l.06.06A.6.6,0,0,1,9,11a.3.3,0,0,1,0,.07l0,0a.16.16,0,0,1,0,.06v.05a.17.17,0,0,1,0,.16v0l0,.05v.12a.17.17,0,0,1,0,0,.28.28,0,0,1-.1.19l0,0v0A.39.39,0,0,1,9,12H9a.53.53,0,0,0,0,.08l0,.06.1.2a.3.3,0,0,1,.08.25l0,.09a.24.24,0,0,1,0,.1l0,0a.19.19,0,0,1,0,.07h0l.08.09a.58.58,0,0,1,.07.14l0,.06a.38.38,0,0,1,.08.27h.1a.21.21,0,0,1,.14,0h0a.22.22,0,0,1,.11,0h.06l.1,0,0,0a1.17,1.17,0,0,0,.27-.3l.06-.06v0l0-.06a.15.15,0,0,1,0-.18.37.37,0,0,1,.11-.1l.09,0v-.06a.47.47,0,0,1,0-.11.15.15,0,0,1,0-.09V12.3a.15.15,0,0,1,.06-.12l.1-.07,0,0a.41.41,0,0,1,.11-.1l.11-.05.06,0,0,0h0s0,0,0-.06,0,0,0,0h0a.15.15,0,0,1,0-.08.19.19,0,0,1,0-.05v-.06a.16.16,0,0,1,0,0l0,0a.35.35,0,0,1-.06-.21.16.16,0,0,1,0-.08l0,0a.35.35,0,0,1,.06-.28h0a.24.24,0,0,1,.05-.09.11.11,0,0,1,.06-.1l0,0,0,0h0l.18-.2.14-.1.09-.06h0l0-.06.06-.06a.41.41,0,0,0,.07-.09v0l0,0,0-.08a.16.16,0,0,1,0-.08l0,0h-.1a.22.22,0,0,1-.14,0l0,0h-.11a.15.15,0,0,1-.11,0l0-.05h0a.16.16,0,0,1-.09-.14.16.16,0,0,1,0,0v0l0,0,0,0h0a.15.15,0,0,1-.08,0A.43.43,0,0,1,11,9.23v0a.26.26,0,0,1-.1-.08.34.34,0,0,1,0-.21.28.28,0,0,0,0-.05l0,0-.07-.06a.25.25,0,0,1,0-.1v0l-.07-.12,0-.07-.06-.15a.34.34,0,0,1-.09-.18.16.16,0,0,1,0,0l-.07,0a.22.22,0,0,1-.15,0l-.08,0L10,8H9.9l0,0L9.74,8l-.06,0a.2.2,0,0,1-.12.2.19.19,0,0,1-.13,0,.28.28,0,0,1-.14-.07h0a.38.38,0,0,1-.13,0A.22.22,0,0,1,9,8H9l0,0H8.85l-.11,0,0,0h0a.24.24,0,0,1-.14-.16.15.15,0,0,1,0-.13h0a.22.22,0,0,1-.12,0H8.4l-.06,0a.26.26,0,0,1-.14,0l-.09,0h0L8,7.58l0,0a.14.14,0,0,1-.11,0,.22.22,0,0,1-.1.06A.24.24,0,0,1,7.58,7.7Z"/><path class="cls-1" d="M7.56,10.08v0l0-.08h0Z"/><polygon class="cls-1" points="7.55 10.18 7.55 10.18 7.56 10.16 7.55 10.16 7.55 10.18"/><circle class="cls-1" cx="7.75" cy="7.34" transform="translate(-2.44 10.51) rotate(-60.71)"/><polygon class="cls-1" points="16.44 9.52 16.4 9.57 16.43 9.55 16.44 9.52"/><path class="cls-1" d="M9,0a9,9,0,1,0,9,9A9,9,0,0,0,9,0ZM2,6.39a.15.15,0,0,1,0,.29H2a.15.15,0,0,1-.11,0l0,0A.15.15,0,0,1,2,6.39ZM15.51,8.53a.13.13,0,0,1,.09,0,.3.3,0,0,1,.09.18v0h0a.21.21,0,0,1,.09.1l0,0a.46.46,0,0,1,0,.1A.16.16,0,0,1,16,9a.35.35,0,0,1,.07.08.15.15,0,0,1,.05.09l0,.14a.29.29,0,0,1,.12,0,.16.16,0,0,1,.11.05l0,0h0l0,0h0a.15.15,0,0,1,.08.14c0,.16,0,.32-.06.48a.15.15,0,0,1-.09.12h0a.23.23,0,0,1,0,.08.17.17,0,0,1,0,.07A7.58,7.58,0,0,1,3.7,14.43a.15.15,0,0,1,0-.21h0v0a.12.12,0,0,1,.07-.11.11.11,0,0,1,.08,0L3.92,14l.14-.07H3.94a.23.23,0,0,1,0-.11.15.15,0,0,1,0,0,.16.16,0,0,1,0-.12l.06,0H4a.86.86,0,0,1,.24-.14h0a.15.15,0,0,1,.1-.06h.14l0,0a.29.29,0,0,1,.05-.09l0-.06v0a.22.22,0,0,1,0-.17v-.23a.16.16,0,0,1,0,0l0-.07v0a.15.15,0,0,1,.05-.11l.07,0h0a.17.17,0,0,1,0-.1l0,0a.2.2,0,0,0,.11-.15v0a.23.23,0,0,1-.11,0l-.1-.08L4.76,12a.15.15,0,0,1-.09,0H4.59l-.06,0h0a.18.18,0,0,1-.15,0,.15.15,0,0,1-.1-.1v0l0,0h0l-.06,0-.06,0a.18.18,0,0,1-.14,0H3.89l-.06,0H3.74a.17.17,0,0,1-.09-.12.15.15,0,0,1,.05-.14s0,0,0,0a.24.24,0,0,1,.07-.07.44.44,0,0,1,0-.12l0,0-.06-.05-.06,0h0a.14.14,0,0,1-.1,0H3.36a.17.17,0,0,1-.11-.06.15.15,0,0,1-.15-.13v0h0s0,0,0,0-.19-.07-.2-.14l0,0-.05,0a.24.24,0,0,1-.2,0,.27.27,0,0,1-.18,0l0,0a.17.17,0,0,1,0,.05.21.21,0,0,1-.15.11.15.15,0,0,1-.11,0A.24.24,0,0,1,2,10.86l0,0H2v0a.15.15,0,0,1-.11.1h0a.16.16,0,0,1-.19-.11l0-.1,0-.17a.15.15,0,0,1,0,0v0a7.5,7.5,0,0,1-.13-1.16.13.13,0,0,1,0,0v0s0-.08,0-.11,0-.12,0-.18,0-.15,0-.23V8.66a.15.15,0,0,1,.1-.13.15.15,0,0,1,.1,0l0-.07,0,0,0,0a.17.17,0,0,1,.12-.11.4.4,0,0,1,.09-.09l.07,0,0,0a.15.15,0,0,1,0-.08H2a.15.15,0,0,1,0-.08L2,7.9a.18.18,0,0,1,0,0H2a.12.12,0,0,1,0,0,.16.16,0,0,1,.08-.12v0l0,0,0,0,.05,0h0l0,0a.14.14,0,0,1,.17-.09l.07,0v0a.14.14,0,0,1,0-.06.35.35,0,0,1,.05-.09.15.15,0,0,1,.07-.07h0l0,0v0a.15.15,0,0,1-.21-.19.82.82,0,0,1,.28-.32l.06,0A.22.22,0,0,1,3,6.5a.44.44,0,0,1,.2,0h.36l0,0a.16.16,0,0,1-.09,0,.15.15,0,0,1-.06-.14.32.32,0,0,1,0-.07l0,0a.15.15,0,0,1,0-.07h0A.23.23,0,0,1,3.25,6a.16.16,0,0,1,0-.15h0l0,0,0,0A.15.15,0,0,1,3,5.85L3,5.87a.15.15,0,0,1-.18,0h0a.15.15,0,0,1-.12-.06.19.19,0,0,1,0-.16.15.15,0,0,1,0-.06v0H2.56a.15.15,0,0,1-.09-.05.18.18,0,0,1,0-.11.14.14,0,0,1,0-.11l.08-.12,0,0A.15.15,0,0,1,2.63,5h.05l0-.06a.15.15,0,0,1,.1-.05.13.13,0,0,1-.05-.06.14.14,0,0,1,0-.15l0,0v0h0l.06,0,0,0A.14.14,0,0,1,3,4.5a.15.15,0,0,1,0-.14,7.38,7.38,0,0,1,.57-.66h0l.05,0,0-.05.06,0,0,0,.09-.08a.15.15,0,0,1,.17,0h0a.17.17,0,0,1,.1.07v0l0,0v0a.15.15,0,0,1,0,.07.15.15,0,0,1,0,.14.12.12,0,0,1,0,.07.16.16,0,0,1,0,.05l0,0V4a.15.15,0,0,1,0,.1.16.16,0,0,1,.06.09.15.15,0,0,1,0,.15l-.06,0h0l0,0h0l.05,0a.18.18,0,0,1,.06,0,.16.16,0,0,1,0,.1.15.15,0,0,1,0,.1.16.16,0,0,1,0,.1h0a.15.15,0,0,1,.08.07l0,0h.06a.21.21,0,0,1,.08-.06.15.15,0,0,1,.1,0l.07,0,0,0h0l0,0v0a.15.15,0,0,1,0-.21l0,0a.17.17,0,0,1,0-.07h0a.14.14,0,0,1,0-.06.15.15,0,0,1,0-.08.14.14,0,0,1,0-.06A.15.15,0,0,1,5,4.23a.15.15,0,0,1,.08-.08l0,0,0,0h0l0,0L5.2,4A.15.15,0,0,1,5.35,4h.06a.18.18,0,0,1,.1,0v0a.15.15,0,0,1,0-.08h0v0a.15.15,0,0,1,0-.17l.06,0a.15.15,0,0,1,.15,0h0l0,0-.06,0a.15.15,0,0,1-.12-.22.13.13,0,0,1,0,0,.18.18,0,0,1-.11-.08.15.15,0,0,1,0-.14.18.18,0,0,1,0-.11.13.13,0,0,1,0,0v0a.15.15,0,0,1,.1-.11h0a.15.15,0,0,1,0-.06.15.15,0,0,1-.07-.07V2.45a.15.15,0,0,1,.07-.17.14.14,0,0,1,.06-.07l.05,0h0a7.53,7.53,0,0,1,7.13.3.15.15,0,0,1,.06.07.16.16,0,0,1,.09,0,7.68,7.68,0,0,1,.7.49.15.15,0,0,1,.05.15.3.3,0,0,1,0,.07l0,.05,0,0-.05,0a.26.26,0,0,1,0,.08h0l0,.06.05,0,0,.05V3.55a.28.28,0,0,1,0-.15l0,0a.15.15,0,0,1,.07-.06.15.15,0,0,1,.16,0l.09.08a.15.15,0,0,1,0,.08.15.15,0,0,1,.09,0l.07.06,0,.05,0,0,0,0,0,0,0,0a.18.18,0,0,1,0,.16.15.15,0,0,1-.1.11A.24.24,0,0,1,14.2,4h0l0,0a.19.19,0,0,1-.06.08l-.07,0A.13.13,0,0,1,14,4.2a.24.24,0,0,1-.16,0h0c-.11,0-.23,0-.29-.15a.15.15,0,0,1,0-.13h0l0,0a.88.88,0,0,0-.36-.17h0a.18.18,0,0,1-.13.13l0,0a.2.2,0,0,1-.16,0l0,0h0a.21.21,0,0,1-.13,0l-.05,0a.14.14,0,0,1-.13,0,.23.23,0,0,1-.12,0l0,0h0L12,4a.19.19,0,0,1-.07.1l-.06,0h-.18a.16.16,0,0,1,0,.06.17.17,0,0,1-.11,0,.26.26,0,0,1-.11,0l0,0a.18.18,0,0,1,0,.15.15.15,0,0,1-.16.06h0v0a.22.22,0,0,1-.24.06.18.18,0,0,1-.1,0l0,0-.07,0c-.1-.05-.14-.27-.14-.27h0l-.1-.08,0,0a.15.15,0,0,1,0-.24.2.2,0,0,1,.24,0h0l.1,0a1,1,0,0,0,.25.06h0L11,3.9l-.11-.08-.18,0a.15.15,0,0,1-.09,0l-.07,0,0,0a.11.11,0,0,1-.11,0,.23.23,0,0,1-.17-.06s0,0-.07,0h-.08a.15.15,0,0,1-.12,0l-.06,0,0,0a.12.12,0,0,1-.08,0H9.69l0,0-.06,0a.16.16,0,0,1-.1,0h0l0,0,0,0v0l0,.06,0,0,0,0,0,0,0,0,0,0a.15.15,0,0,1-.09.11h0a.15.15,0,0,1-.1.15.15.15,0,0,1,0,.06l-.07,0,0,0-.05.06-.06,0h0l0,0,0,0a.17.17,0,0,1-.11,0h0l0,0h0v0l0,0a.14.14,0,0,1,0,.12h0a.12.12,0,0,1,.06-.05.15.15,0,0,1,0-.06.16.16,0,0,1,.14,0,.17.17,0,0,1,.08.07A.16.16,0,0,1,8.94,5a.12.12,0,0,1,0,0,.15.15,0,0,1,0,.09.19.19,0,0,1,0,.05l0,0,0,0h0v0a.18.18,0,0,1,0-.06v0A.15.15,0,0,1,9.1,5a.15.15,0,0,1,0-.12l0,0,0,0a.14.14,0,0,1,0,0,.3.3,0,0,1,0-.13V4.6a.15.15,0,0,1,.06-.14l0,0a.17.17,0,0,1,.08-.06l0,0a.19.19,0,0,1,.07-.06h0a.13.13,0,0,1,0,0,.17.17,0,0,1,0-.07.14.14,0,0,1,0-.07.19.19,0,0,1,.08-.06A.17.17,0,0,1,9.69,4a.15.15,0,0,1,.15,0h.05A.15.15,0,0,1,10,4h0a.16.16,0,0,1,.11.08l0,0a.18.18,0,0,1,0,.07.19.19,0,0,1,0,.07.16.16,0,0,1-.15.15l-.09.1,0,0-.06.06h0a.15.15,0,0,1,0,.1l.06,0h0l0,0h0a.19.19,0,0,1,.11,0h.08l.06,0a.17.17,0,0,1,.13.06h0a.21.21,0,0,1,.14.11.15.15,0,0,1,0,.19.16.16,0,0,1-.11,0h0l-.06,0h-.1l-.11,0v.07a.19.19,0,0,1,0,.11.21.21,0,0,1-.15.13.2.2,0,0,1-.11,0,.15.15,0,0,1,0,.1h0a.15.15,0,0,1-.08.11l-.08,0,0,0a.25.25,0,0,1-.23,0l0,0h0l-.1,0,0,0A.15.15,0,0,1,9,5.8l0,0-.07,0a.16.16,0,0,1-.15,0H8.69l-.07,0,0,0h0l-.06,0,0,.06a.14.14,0,0,1-.12,0l0,0a.21.21,0,0,1-.14.06h0a.18.18,0,0,1-.08.11l0,0v0a.19.19,0,0,1-.13.06l0,0a.22.22,0,0,1,.08.1.15.15,0,0,1,0,.07l0,.05a.15.15,0,0,1,0,.14v0a.6.6,0,0,1,0,.11.15.15,0,0,1-.11.08.25.25,0,0,1-.13,0,.47.47,0,0,1-.18,0l-.07,0H7.29v0a.48.48,0,0,1,0,.22h0l0,.05a.19.19,0,0,1,.12,0l0,0s.05,0,.07,0h.1a.19.19,0,0,1,.08-.06v0a.15.15,0,0,1,0-.07.38.38,0,0,1,.11-.18h0A.21.21,0,0,1,8,6.83H8a.21.21,0,0,1,.1-.18.2.2,0,0,1,.19,0h.09l.06,0,0,0h0a.25.25,0,0,1,.28,0v0a.22.22,0,0,1,.07-.09l.08,0a.13.13,0,0,1,.08,0,.23.23,0,0,1,.15.05.22.22,0,0,1,.13.13.15.15,0,0,1,.05.06l.07,0,0,0,0,0,.07,0,0,0a.17.17,0,0,1,.1.14h0a.14.14,0,0,1,.12,0h0l.08,0h0A.15.15,0,0,1,10,6.79h0l0-.05a.28.28,0,0,1,0-.08.28.28,0,0,1,.08-.15l0,0a.23.23,0,0,1,.11-.09s.05-.08.14-.1h0a.14.14,0,0,1,.19,0v0h0l.06,0a.09.09,0,0,1,.09,0h.06l.07,0h.14a.15.15,0,0,1,.16.08.18.18,0,0,1,0,.2h0l0,.05,0,0,0,0,0,0h0a.23.23,0,0,1,.11.09l0,0v0a.24.24,0,0,1,0,.2.28.28,0,0,1-.18.12.23.23,0,0,1-.12,0h0a.35.35,0,0,1-.16,0l-.08,0h-.06l0,0h0l0,0h-.05l-.06,0h0l0,0a.43.43,0,0,1-.11,0l0,0h0a.15.15,0,0,1-.11,0v.06h.06l.06,0a.34.34,0,0,1,.21,0h0a.18.18,0,0,1,.16,0,.17.17,0,0,1,.19,0l0,.08a.25.25,0,0,1,0,.12h0v0a.34.34,0,0,1,0,0,.14.14,0,0,1,0,.15l0,.06,0,.05v0l0,.07,0,.05a.15.15,0,0,1,0,.13v0l.05.08.06.09a.35.35,0,0,1,.07.13l.05,0,0,0,.06.1a.27.27,0,0,1,0,.14l0,0s0,0,.08,0l.08.15h0a.43.43,0,0,1,.11.16l0,.09a.16.16,0,0,1,0,0h0l0,.05,0,0h.1l.08,0h0l0,0,.14,0h0a.27.27,0,0,1,.14-.12l.11,0h0A.18.18,0,0,1,12.44,9h0l.07-.06V8.84a.15.15,0,0,1,.08-.09h0l-.08,0-.05,0-.07,0h-.26a.18.18,0,0,1-.1,0A.15.15,0,0,1,12,8.62a.33.33,0,0,1,0-.08.15.15,0,0,1,0-.06.25.25,0,0,1,0-.07l0,0a.14.14,0,0,1-.06-.07l0,0,0,0a.17.17,0,0,1-.06-.09.16.16,0,0,1,0-.13h0a.13.13,0,0,1,0-.05.17.17,0,0,1,.1-.06l.06,0a.15.15,0,0,1,.16,0,.15.15,0,0,1,.1.07.24.24,0,0,1,.06.08.14.14,0,0,1,0,.05h0l.07,0,0,0h0l0,0a.3.3,0,0,1,.18,0l0,0a.15.15,0,0,1,.1.1v0h0l.08,0H13l.05,0h.12l.07,0a.14.14,0,0,1,.09,0h.13l.08,0a.19.19,0,0,1,.07.08.15.15,0,0,1,0,.06h0l0,0,0,0a.15.15,0,0,1,.13,0l0,0h.07a.15.15,0,0,1,.14.17.16.16,0,0,1,0,.14l0,0,0,.25,0,.08,0,.07.05.14,0,.08.05.11,0,0v0a.35.35,0,0,1,0-.11h0a.15.15,0,0,1,0-.11.15.15,0,0,1,0-.11l0,0a.25.25,0,0,1,.05-.07l.07,0,0,0h0l0,0,.08,0,0,0h0l.06-.08,0,0,.08,0a.16.16,0,0,1,0-.09.26.26,0,0,1,.1-.06.16.16,0,0,1,.15-.05h0l0-.05a.16.16,0,0,1,.12,0Zm-3-1.27h0a.2.2,0,0,1-.19.28l-.14,0A.3.3,0,0,1,12,7.48l-.06,0a.15.15,0,0,1-.1-.1.34.34,0,0,1,0-.17.22.22,0,0,1,0-.13h0V7h0l0,0,0,0,0,0,0,0a.2.2,0,0,1,0-.1h0a.14.14,0,0,1-.05-.07.14.14,0,0,1,0-.06.18.18,0,0,1,.06-.14v0l0,0a.14.14,0,0,1,.13-.07l0,0,.07,0h0a.26.26,0,0,1,.17-.06h.12a.3.3,0,0,1,.14.08.2.2,0,0,1,0,.13.19.19,0,0,1,0,.06.15.15,0,0,1,0,.13.15.15,0,0,1-.08.06l0,0h0a.15.15,0,0,1,.12.11h0a.21.21,0,0,1,.06.07.15.15,0,0,1,0,.13.23.23,0,0,1-.06.07A.21.21,0,0,1,12.52,7.26Z"/><path class="cls-1" d="M13.8,3.8h0l0-.07a.35.35,0,0,1-.06.12h0Z"/><path class="cls-1" d="M9,4.27l0,0H9Z"/><path class="cls-1" d="M9.25,5.59v0h0Z"/></svg>