<svg version="1.1" id="Layer_1" xmlns="http://www.w3.org/2000/svg" x="0px" y="0px"
	 width="20.88px" height="19.58px" viewBox="0 0 20.88 19.58" style="enable-background:new 0 0 20.88 19.58;" xml:space="preserve"
	>
		<path fill="currentColor" d="M19.53,9.96c0,0.83-0.87,0.91-1,1.31c-0.13,0.44,0.52,0.61,0.52,1.39c0,0.83-1,0.83-1.13,1.22
			c-0.17,0.48,0.3,0.65,0.3,1.44c0,0.04,0,0.09,0,0.13c-0.13,0.65-1.13,0.7-1.31,0.96c-0.17,0.3,0.04,0.48,0.04,1.17
			c0,0.39-0.43,0.65-0.96,0.65H9.79c-0.48,0-1.09-0.26-1.65-0.57c-0.52-0.26-1.04-0.52-1.61-0.65v-6.92
			c1.61-1.22,3.7-3.09,4.52-5.35c0-0.04,0-0.09,0.04-0.09l0.61-3.26c0.22-0.09,0.39-0.09,0.74-0.09c0.13,0,0.65,0.78,0.65,3.26
			c0,0.96-0.17,2.04-0.52,3.26H12.4c-0.35,0-0.65,0.3-0.65,0.65s0.3,0.65,0.65,0.65h5.87C18.92,9.14,19.53,9.44,19.53,9.96z
			 M20.88,9.96c0-1.39-1.09-2.13-2.61-2.13h-4.39c0.3-1.17,0.48-2.31,0.48-3.26C14.36,0.78,13.31,0,12.4,0
			c-0.61,0-1.04,0.04-1.65,0.44c-0.17,0.09-0.26,0.26-0.3,0.44L9.79,4.39c-0.7,1.87-2.48,3.48-3.92,4.57v9.31
			c0.48,0,1.09,0.26,1.65,0.57c0.7,0.35,1.44,0.7,2.26,0.7h6.22c1.31,0,2.26-1.04,2.26-1.96c0-0.17,0-0.35-0.04-0.48
			c0.83-0.3,1.35-1,1.35-1.78c0-0.39-0.09-0.74-0.22-1c0.48-0.35,1-0.91,1-1.61c0-0.35-0.17-0.78-0.43-1.09
			C20.49,11.18,20.88,10.57,20.88,9.96z"/>

	<path fill="currentColor" d="M1.31,9.14v9.14h3.92V9.14H1.31z M5.22,19.58H1.31C0.57,19.58,0,19.01,0,18.27V9.14C0,8.4,0.57,7.83,1.31,7.83h3.92
		c0.74,0,1.3,0.57,1.3,1.31v9.14C6.53,19.01,5.96,19.58,5.22,19.58z"/>

</svg>
