
<svg xmlns="http://www.w3.org/2000/svg" x="0px" y="0px" width="20.88px" height="19.58px" viewBox="0 0 20.88 19.58" style="enable-background:new 0 0 20.88 19.58;" xml:space="preserve">
		<path fill="currentColor" d="M18.27,10.44H12.4c-0.35,0-0.65,0.3-0.65,0.65c0,0.35,0.3,0.65,0.65,0.65h0.17c0.35,1.22,0.52,2.31,0.52,3.26
			c0,2.48-0.52,3.26-0.65,3.26c-0.35,0-0.52,0-0.74-0.09l-0.61-3.26c-0.04,0-0.04-0.04-0.04-0.09c-0.83-2.26-2.91-4.13-4.52-5.35
			V2.57c0.57-0.13,1.09-0.39,1.61-0.65c0.57-0.3,1.17-0.57,1.65-0.57h6.22c0.52,0,0.96,0.26,0.96,0.65c0,0.7-0.22,0.87-0.04,1.17
			c0.17,0.26,1.17,0.3,1.31,0.96c0,0.04,0,0.09,0,0.13c0,0.78-0.48,0.96-0.3,1.44c0.13,0.39,1.13,0.39,1.13,1.22
			c0,0.78-0.65,0.96-0.52,1.39c0.13,0.39,1,0.48,1,1.31C19.53,10.14,18.92,10.44,18.27,10.44z M19.92,7.96
			c0.26-0.3,0.43-0.74,0.43-1.09c0-0.7-0.52-1.26-1-1.61c0.13-0.26,0.22-0.61,0.22-1c0-0.78-0.52-1.48-1.35-1.78
			c0.04-0.13,0.04-0.3,0.04-0.48c0-0.91-0.96-1.96-2.26-1.96H9.79c-0.83,0-1.57,0.35-2.26,0.7c-0.57,0.3-1.17,0.57-1.65,0.57v9.31
			c1.44,1.09,3.22,2.7,3.92,4.57l0.65,3.52c0.04,0.17,0.13,0.35,0.3,0.43c0.61,0.39,1.04,0.44,1.65,0.44c0.91,0,1.96-0.78,1.96-4.57
			c0-0.96-0.17-2.09-0.48-3.26h4.39c1.52,0,2.61-0.74,2.61-2.13C20.88,9,20.49,8.4,19.92,7.96z"/>

	<path fill="currentColor" d="M5.22,10.44V1.31H1.31v9.14H5.22z M6.53,1.31v9.14c0,0.74-0.57,1.3-1.3,1.3H1.31c-0.74,0-1.31-0.57-1.31-1.3V1.31
		C0,0.57,0.57,0,1.31,0h3.92C5.96,0,6.53,0.57,6.53,1.31z"/>
</svg>
