<svg xmlns="http://www.w3.org/2000/svg" x="0px" y="0px" width="24" height="21" viewBox="0 0 24 21.2" style="enable-background:new 0 0 24 21.2" xml:space="preserve">
    <path fill="currentColor" d="M12,21.2c-0.5,0-1.1-0.2-1.4-0.6L2.1,12C0.7,10.7,0,8.9,0,7s0.7-3.6,2.1-5C3.4,0.7,5.2,0,7,0
		c1.8,0,3.3,0.7,4.7,2.1L12,2.3l0.2-0.3C13.6,0.7,15.1,0,17,0c1.9,0,3.6,0.7,5,2.1S24,5.2,24,7s-0.7,3.6-2,5l-8.5,8.6
		C13.1,20.9,12.6,21.2,12,21.2z M7,1.2c-1.5,0-3,0.6-4.1,1.7C1.8,4,1.2,5.5,1.2,7s0.6,3,1.7,4.1l8.5,8.6c0.3,0.3,0.8,0.3,1.1,0
		l8.5-8.6c1.1-1.1,1.7-2.5,1.7-4.1c0-1.5-0.6-3-1.7-4.1S18.5,1.2,17,1.2c-1.5,0-2.7,0.5-3.9,1.6L12,4.3l-1.2-1.4
		C9.7,1.8,8.5,1.2,7,1.2z"/>
</svg>
