<svg xmlns="http://www.w3.org/2000/svg" width="26" height="26"  viewBox="0 0 32 32">
    <defs>
        <style>.cls-insta{fill:url(#radial-gradient);}}</style>
        <radialGradient id="radial-gradient" cx="15.75" cy="17.26" fx="-3.234773227052262" r="45.23" gradientTransform="translate(-5.15 20.02) rotate(-49.2) scale(1 0.81)" gradientUnits="userSpaceOnUse">
            <stop offset="0" stop-color="#f9ed32"/>
            <stop offset="0.05" stop-color="#f8d939"/>
            <stop offset="0.17" stop-color="#f5a54d"/>
            <stop offset="0.33" stop-color="#f0536c"/>
            <stop offset="0.4" stop-color="#ee2a7b"/>
            <stop offset="0.56" stop-color="#9e2aa7"/>
            <stop offset="0.72" stop-color="#5b2acd"/>
            <stop offset="0.85" stop-color="#2a2ae8"/>
            <stop offset="0.95" stop-color="#0b2af9"/>
            <stop offset="1" stop-color="#002aff"/>
        </radialGradient>
    </defs>
    <circle class="cls-insta" cx="16" cy="16" r="16"/>
    <path fill="#fff" d="M20.33,26.8H11.67a7,7,0,0,1-7-7V12.18a7,7,0,0,1,7-7h8.67a7,7,0,0,1,7,7v7.64A7,7,0,0,1,20.33,26.8Zm-8.67-20a5.43,5.43,0,0,0-5.43,5.43v7.64a5.43,5.43,0,0,0,5.43,5.43h8.67a5.43,5.43,0,0,0,5.43-5.43V12.18a5.43,5.43,0,0,0-5.43-5.43Z"/>
    <path fill="#fff" d="M16,22.21A6.21,6.21,0,1,1,22.21,16,6.22,6.22,0,0,1,16,22.21Zm0-10.87A4.66,4.66,0,1,0,20.66,16,4.67,4.67,0,0,0,16,11.34Z"/>
    <circle fill="#fff" cx="22.12" cy="9.98" r="1.29"/>
</svg>
