<svg xmlns="http://www.w3.org/2000/svg" width="20" height="20" viewBox="0 0 20.83 19.69">
    <path fill="#231f20" d="M13.19,6.18a2.57,2.57,0,1,0-2.57,2.57A2.57,2.57,0,0,0,13.19,6.18Zm-4.12,0a1.54,1.54,0,1,1,1.54,1.54A1.54,1.54,0,0,1,9.07,6.18Z"/>
    <path fill="#231f20" d="M10.62,16.48c1,0,6.18-7.75,6.18-10.3a6.18,6.18,0,0,0-12.36,0C4.44,8.76,9.59,16.48,10.62,16.48ZM10.62,1a5.15,5.15,0,0,1,5.15,5.15c0,2.12-4.31,8.76-5.15,8.75S5.47,8.33,5.47,6.18A5.15,5.15,0,0,1,10.62,1Z"/>
    <path fill="#231f20" d="M20.79,19l-2.56-5.77a.5.5,0,0,0-.46-.3h0l-2.92,0a.5.5,0,0,0-.5.5.48.48,0,0,0,.5.5l2.59,0,2.12,4.77H1.24L3.15,14l2.37,0h0a.5.5,0,0,0,0-1L2.82,13a.44.44,0,0,0-.47.31L0,19a.5.5,0,0,0,.46.69H20.33a.5.5,0,0,0,.46-.7Z"/>
</svg>
