<svg xmlns="http://www.w3.org/2000/svg" width="26" height="26" viewBox="0 0 32.01 32">
    <path fill="#fe8700" d="M16,32h0A16,16,0,0,0,32,16h0A16,16,0,0,0,16,0h0A16,16,0,0,0,0,16H0A16,16,0,0,0,16,32Z"/>
    <path fill="#fff" d="M15.94,16.47a4.5,4.5,0,1,0-4.5-4.5A4.5,4.5,0,0,0,15.94,16.47Zm0-6.36A1.86,1.86,0,1,1,14.08,12,1.86,1.86,0,0,1,15.94,10.11Z"/>
    <path fill="#fff" d="M17.76,20.14a8.43,8.43,0,0,0,2.61-1.08A1.32,1.32,0,0,0,19,16.83a5.71,5.71,0,0,1-6.06,0,1.32,1.32,0,0,0-1.4,2.23,8.44,8.44,0,0,0,2.61,1.08L11.6,22.66a1.32,1.32,0,0,0,1.87,1.86L15.94,22l2.47,2.47a1.32,1.32,0,1,0,1.86-1.86Z"/>
</svg>
