<svg xmlns="http://www.w3.org/2000/svg"  x="0px" y="0px" width="21" height="21"
	 viewBox="0 0 24 24" style="enable-background:new 0 0 24 24;" xml:space="preserve">

<path fill="currentColor" d="M12,0C5.4,0,0,5.4,0,12s5.4,12,12,12s12-5.4,12-12S18.6,0,12,0z M12,1c6.1,0,11,4.9,11,11c0,2.7-1,5.1-2.5,7
	c-1.1-0.5-3.7-1.4-5.3-1.8c-0.1,0-0.2,0-0.2-0.6c0-0.5,0.2-0.9,0.4-1.3c0.2-0.4,0.4-1.2,0.5-1.8c0.2-0.3,0.6-0.8,0.8-1.9
	c0.2-0.9,0.1-1.3,0-1.6c0,0,0-0.1,0-0.1c0-0.2,0-1.4,0.2-2.2c0.1-0.6,0-1.9-0.9-3c-0.5-0.7-1.5-1.5-3.4-1.6h-1
	C9.8,3.1,8.8,3.9,8.2,4.6c-0.8,1.1-1,2.4-0.9,3c0.2,0.9,0.2,2,0.2,2.2c0,0,0,0.1,0,0.1c-0.1,0.3-0.2,0.7,0,1.6
	c0.2,1.1,0.5,1.6,0.8,1.9c0.1,0.7,0.3,1.4,0.5,1.8C8.9,15.6,9,16,9,16.6c0,0.6,0,0.6-0.1,0.6c-1.7,0.5-4.3,1.4-5.3,1.9
	C2,17.2,1,14.7,1,12C1,5.9,5.9,1,12,1z M4.3,19.9c1.1-0.5,3.4-1.3,4.8-1.7c0.9-0.3,0.9-1,0.9-1.6c0-0.5,0-1.2-0.3-1.8
	c-0.2-0.4-0.4-1.1-0.5-1.7c0-0.1-0.1-0.3-0.2-0.3c-0.1-0.1-0.4-0.6-0.6-1.5c-0.1-0.7-0.1-0.9,0-1c0-0.1,0.1-0.1,0.1-0.2
	c0.1-0.4,0-1.9-0.2-2.7C8.3,7.1,8.4,6.1,9,5.2c0.6-0.8,1.5-1.2,2.6-1.2h0.9c1.2,0.1,2,0.5,2.6,1.2c0.6,0.8,0.7,1.8,0.7,2.2
	c-0.1,0.8-0.3,2.2-0.2,2.7c0,0.1,0.1,0.1,0.1,0.2c0.1,0.1,0.1,0.3,0,1c-0.2,0.9-0.5,1.4-0.6,1.5C15,12.9,15,13,15,13.1
	c-0.1,0.6-0.3,1.3-0.5,1.7c-0.2,0.5-0.5,1.1-0.5,1.8c0,0.6,0,1.3,0.9,1.6c1.4,0.4,3.7,1.2,4.9,1.7c-2,2-4.7,3.2-7.8,3.2
	C9,23,6.3,21.8,4.3,19.9z"/>
</svg>
