<svg xmlns="http://www.w3.org/2000/svg" width="21" height="21" viewBox="0 0 18.12 17.02">
    <rect fill="#231f20" x="7.66" y="4.06" width="0.85" height="10.84"/>
    <polygon fill="#231f20" points="5.97 14.88 5.1 4.06 4.25 4.11 5.13 14.92 5.97 14.88"/>
    <polygon fill="#231f20" points="11.92 4.08 11.07 4.04 10.21 14.88 11.06 14.92 11.92 4.08"/>
    <path fill="#231f20" d="M16.17,2.69V2H11.91V1.35A1.56,1.56,0,0,0,10.21,0H6a1.56,1.56,0,0,0-1.7,1.35V2H0v.66ZM5.11,1.35A.78.78,0,0,1,6,.68h4.25a.78.78,0,0,1,.85.68V2h-6Z"/>
    <path fill="#231f20" d="M14.43,3.36l-.79,12.18v0a.78.78,0,0,1-.85.68H3.43a.78.78,0,0,1-.85-.68v0L1.77,3.36H.92l.81,12.22a1.56,1.56,0,0,0,1.7,1.35h9.36a1.56,1.56,0,0,0,1.7-1.35l.79-12.22Z"/>
    <path fill="#fff" d="M13,6.69a5.17,5.17,0,1,0,5.17,5.17A5.17,5.17,0,0,0,13,6.69Z"/>
    <path fill="#231f20" d="M13,6.69a5.17,5.17,0,1,0,5.17,5.17A5.17,5.17,0,0,0,13,6.69Zm0,9.92a4.75,4.75,0,1,1,4.75-4.75A4.76,4.76,0,0,1,13,16.61Z"/>
    <polygon fill="#231f20" points="15.11 10.11 14.7 9.7 12.96 11.44 11.22 9.7 10.81 10.11 12.55 11.85 10.8 13.6 11.21 14 12.96 12.26 14.7 14 15.11 13.6 13.37 11.85 15.11 10.11"/>
</svg>
