<svg xmlns="http://www.w3.org/2000/svg" viewBox="0 0 32.63 32">
	<rect fill="none" width="32.63" height="32"/>
	<path fill="#fff" d="M25.31,24.64l-5.37-5.42a7.34,7.34,0,1,0-5.27,2.25,7.28,7.28,0,0,0,4.5-1.56l5.42,5.46ZM8.34,14a6.33,6.33,0,1,1,6.33,6.38A6.36,6.36,0,0,1,8.34,14Z"/>
	<path fill="#fff" d="M24.58,25.88a.5.5,0,0,1-.35-.15l-5.11-5.16A7.72,7.72,0,0,1,14.67,22a7.9,7.9,0,1,1,6-2.76l5,5.08a.5.5,0,0,1,0,.7l-.73.74A.5.5,0,0,1,24.58,25.88Zm-5.42-6.46a.5.5,0,0,1,.35.15l5.06,5.1,0,0-5-5.07a.5.5,0,0,1,0-.7A6.84,6.84,0,1,0,14.67,21a6.75,6.75,0,0,0,4.19-1.45A.5.5,0,0,1,19.17,19.41Zm-4.5,1.52A6.88,6.88,0,1,1,21.49,14,6.86,6.86,0,0,1,14.67,20.93Zm0-12.76A5.88,5.88,0,1,0,20.49,14,5.86,5.86,0,0,0,14.67,8.17Z"/>
</svg>