<svg xmlns="http://www.w3.org/2000/svg" width="27" height="27" viewBox="0 0 27.15 27.15">
    <path fill="#9b6aba" d="M13.57,27.15A13.51,13.51,0,0,1,6.8,25.33L1.52,27.15l1.09-5.6a13.42,13.42,0,0,1-2.6-8A13.57,13.57,0,1,1,13.57,27.15Z"/>
    <path fill="none" d="M13.57,5.37A8.2,8.2,0,0,0,7.11,18.62l-.55,2.83,2.67-.92A8.2,8.2,0,1,0,13.57,5.37Z"/>
    <path fill="#fff" d="M13.57,22.44a8.83,8.83,0,0,1-4.42-1.19L5.7,22.44l.71-3.66a8.77,8.77,0,0,1-1.7-5.21,8.87,8.87,0,1,1,8.87,8.87ZM9.31,19.8l.27.17a7.56,7.56,0,1,0-1.95-1.75l.19.24-.39,2Z"/>
    <path fill="#fff" d="M9.1,10.17s.52-.91.94-1,1-.05,1.12.23.81,1.89.81,1.89a.63.63,0,0,1-.06.55,5.4,5.4,0,0,1-.56.66.48.48,0,0,0,0,.57,10.43,10.43,0,0,0,1.25,1.53,6.8,6.8,0,0,0,2,1.19.41.41,0,0,0,.31-.1c.12-.12.78-.94.78-.94a.46.46,0,0,1,.56-.11c.35.16,1.87.92,1.87.92a.33.33,0,0,1,.18.33A2.14,2.14,0,0,1,18,17.06a2.65,2.65,0,0,1-1.85.91,8.16,8.16,0,0,1-4.54-2A9,9,0,0,1,9,12.3C8.74,11.15,8.78,10.64,9.1,10.17Z"/>
</svg>
