<svg xmlns="http://www.w3.org/2000/svg" width="26" height="26" viewBox="0 0 32 32">
    <path fill="#2e77a6" fill-rule="evenodd" d="M16,32h0A16,16,0,0,0,32,16h0A16,16,0,0,0,16,0h0A16,16,0,0,0,0,16H0A16,16,0,0,0,16,32Z"/>
    <path fill="#ffffff" fill-rule="evenodd" d="M15.4,22.3h1.21a1,1,0,0,0,.55-.24.89.89,0,0,0,.17-.53s0-1.63.73-1.87,1.7,1.57,2.71,2.27a1.92,1.92,0,0,0,1.35.41l2.71,0s1.42-.09.75-1.2a9.06,9.06,0,0,0-2-2.33c-1.7-1.58-1.47-1.32.58-4.05,1.25-1.66,1.74-2.68,1.59-3.11s-1.07-.3-1.07-.3l-3.05,0a.69.69,0,0,0-.39.07.85.85,0,0,0-.27.33,17.7,17.7,0,0,1-1.13,2.38c-1.36,2.31-1.9,2.43-2.12,2.29-.52-.33-.39-1.34-.39-2.06,0-2.24.34-3.17-.66-3.41a5.23,5.23,0,0,0-1.42-.14A6.58,6.58,0,0,0,12.7,11c-.35.17-.62.55-.45.57a1.37,1.37,0,0,1,.9.45,2.94,2.94,0,0,1,.3,1.38s.18,2.63-.42,3c-.41.22-1-.23-2.19-2.33a19.46,19.46,0,0,1-1.09-2.26.91.91,0,0,0-.25-.34A1.26,1.26,0,0,0,9,11.28l-2.9,0s-.44,0-.59.2,0,.52,0,.52,2.27,5.31,4.84,8a7,7,0,0,0,5,2.29Z"/>
</svg>
