<svg xmlns="http://www.w3.org/2000/svg" width="26" height="26" viewBox="0 0 32 32">
    <circle fill="#fe3432" cx="16" cy="16" r="16"/>
    <path fill="#fff" d="M25.8,12A4.33,4.33,0,0,0,25,10a2.86,2.86,0,0,0-2-.85C20.2,9,16,9,16,9h0s-4.2,0-7,.2A2.86,2.86,0,0,0,7,10a4.33,4.33,0,0,0-.79,2A30.17,30.17,0,0,0,6,15.24v1.52A30.18,30.18,0,0,0,6.2,20,4.33,4.33,0,0,0,7,22a3.39,3.39,0,0,0,2.21.85c1.6.15,6.8.2,6.8.2s4.2,0,7-.21A2.86,2.86,0,0,0,25,22a4.33,4.33,0,0,0,.79-2,30.18,30.18,0,0,0,.2-3.24V15.24A30.17,30.17,0,0,0,25.8,12ZM13.94,18.6V13l5.4,2.82Z"/>
</svg>
