<svg width="255" height="186" viewBox="0 0 255 186" fill="none" xmlns="http://www.w3.org/2000/svg">
<path d="M254.985 72.6309H0V73.9666H254.985V72.6309Z" fill="#102448"/>
<path d="M228.816 110.92L222.748 125.628H224.168L235.684 110.92H228.816Z" fill="#102448"/>
<path d="M14.5942 146.553C10.7162 146.553 7.29706 145.589 4.78081 144.283L2.26456 146.553H1.09524L0.325562 132.172L1.6873 132.039C5.75771 141.374 10.5386 144.342 14.9938 144.342C19.6415 144.342 22.365 141.3 22.365 137.218C22.365 133.33 20.8848 131.46 14.8014 128.922C12.7292 128.076 10.3462 127.245 8.34797 126.266C3.81871 123.995 1.43567 120.433 1.43567 115.714C1.43567 107.997 8.09634 103.337 14.609 103.337C17.8357 103.337 20.0411 104.242 22.1726 105.474L24.6888 103.277H25.7841L26.8794 115.966L25.5917 116.159C22.0393 109.036 18.2354 105.533 14.0317 105.533C10.3462 105.533 7.88912 107.997 7.88912 111.811C7.88912 114.853 9.19165 117.183 13.7653 119.202C16.0299 120.24 18.6794 121.146 21.0624 122.303C26.2874 124.826 28.7444 128.136 28.7444 132.929C28.7444 141.507 21.5657 146.553 14.5942 146.553Z" fill="#102448"/>
<path d="M48.7709 117.153C44.2416 117.153 41.4737 122.199 41.4737 131.074C41.4737 139.815 44.4488 144.802 49.0373 144.802C53.759 144.802 56.3344 139.756 56.3344 130.881C56.3344 122.14 53.5518 117.153 48.7709 117.153ZM48.5045 146.627C38.6911 146.627 33.8362 139.563 33.8362 130.955C33.8362 122.986 39.3867 115.343 49.3333 115.343C59.1467 115.343 63.8684 122.333 63.8684 130.896C63.8832 138.91 58.4659 146.627 48.5045 146.627Z" fill="#102448"/>
<path d="M77.9002 146.36C72.7937 146.36 71.1803 143.837 71.1803 139.177V119.81H66.3994V118.905L72.3496 114.171L77.0713 108.012H78.0334V116.426H87.8616V119.795H78.0334V136.58C78.0334 139.177 78.4182 140.721 79.7059 141.626C80.8013 142.398 82.2962 142.665 84.4276 142.665C85.4637 142.665 86.7515 142.606 87.98 142.531L88.0392 143.437C85.5229 144.995 81.3933 146.36 77.9002 146.36Z" fill="#102448"/>
<path d="M108.08 120.255C105.623 120.255 103.758 120.715 101.36 121.873V143.318L104.972 144.683V145.588H90.3778V144.683L94.4482 143.318V104.197L89.9929 101.289V100.636L101.109 97.5933L101.36 97.7862V120.463L101.627 120.597C105.431 116.975 108.924 115.343 112.417 115.343C118.234 115.343 120.691 119.751 120.691 124.351V143.333L124.762 144.698V145.603H110.153V144.698L113.779 143.333V127.008C113.764 122.778 112.092 120.255 108.08 120.255Z" fill="#102448"/>
<path d="M147.171 126.548C146.92 120.463 145.173 117.154 141.354 117.154C137.609 117.154 134.693 121.101 134.383 127.127L147.171 126.548ZM134.309 128.744C134.309 136.966 136.632 142.353 143.93 142.353C147.156 142.353 149.806 141.7 153.684 140.276L154.069 141.047C150.131 144.476 145.735 146.613 141.606 146.613C132.754 146.613 126.938 140.528 126.938 131.519C126.938 122.259 133.924 115.328 141.798 115.328C150.324 115.328 154.453 121.086 154.394 128.744H134.309Z" fill="#102448"/>
<path d="M172.689 119.869C170.75 119.869 169.137 120.255 167.597 120.908V141.433C169.595 143.511 172.186 144.416 174.628 144.416C178.447 144.416 181.614 140.988 181.614 131.846C181.599 123.817 178.18 119.869 172.689 119.869ZM171.594 146.627C168.234 146.627 163.778 145.841 160.67 144.935V104.197L156.156 101.289V100.636L167.331 97.5933L167.597 97.7862V119.483L167.849 119.617C170.113 117.346 173.207 115.343 177.218 115.343C183.361 115.343 188.911 120.982 188.911 130.243C188.897 139.489 181.925 146.627 171.594 146.627Z" fill="#102448"/>
<path d="M206.614 147.592C203.387 155.561 200.353 159.064 196.342 159.064C192.922 159.064 191.309 157.06 191.309 154.983C191.309 152.979 193.115 151.287 195.187 151.287C197.392 151.287 198.68 152.445 200.234 154.389C201.463 153.024 202.943 150.694 203.787 148.883L204.882 146.434L193.455 118.771L189.518 117.213V116.367H205.282V117.213L201.152 118.771L208.138 137.752H208.464L214.799 119.231L211.054 117.227V116.382H222.17V117.227L217.967 119.365L206.614 147.592Z" fill="#102448"/>
<path d="M243.44 146.627C239.888 146.627 236.853 146.034 233.878 144.876L233.819 136.328L235.107 136.194C238.585 142.353 241.249 144.683 244.668 144.683C247.703 144.683 249.583 142.739 249.583 139.756C249.583 136.387 246.163 135.096 242.478 133.597C238.407 131.846 234.071 129.902 234.071 124.529C234.071 119.409 238.585 115.328 245.187 115.328C247.703 115.328 251.255 115.848 253.002 116.501L253.194 124.203L251.966 124.529C248.798 119.276 246.726 117.272 243.766 117.272C241.057 117.272 239.37 119.083 239.37 121.413C239.37 124.782 242.863 126.147 246.533 127.631C250.604 129.308 255 131.252 255 136.758C255 142.798 249.701 146.627 243.44 146.627Z" fill="#102448"/>
<path d="M1.13965 185.718H2.59019V170.64H1.13965V185.718ZM7.78552 185.718H9.14725V172.911H9.19166L17.7469 185.718H19.0346V170.64H17.6729V183.062H17.6137L9.32487 170.64H7.78552V185.718ZM27.1163 185.718H28.552V171.99H33.4069V170.655H22.2466V171.99H27.1015V185.718H27.1163ZM36.6632 185.718H46.0622V184.397H38.099V178.402H43.7235V177.096H38.099V171.976H45.6329V170.64H36.6484V185.718H36.6632ZM49.9846 185.718H51.4055V178.951H55.1355L58.821 185.718H60.4492L56.6452 178.787C58.821 178.387 60.242 177.155 60.242 174.721C60.242 172.079 58.377 170.64 55.0171 170.64H49.9846V185.718ZM51.4055 177.674V171.976H54.8986C57.4149 171.976 58.8062 172.718 58.8062 174.795C58.8062 176.977 57.4001 177.689 54.9282 177.689H51.4055V177.674ZM65.2301 185.718H66.5918V172.911H66.6362L75.1915 185.718H76.4644V170.64H75.1027V183.062H75.0583L66.7694 170.64H65.2301V185.718ZM80.3572 185.718H81.7633L83.3619 181.073H89.4601L91.0587 185.718H92.5684L87.2399 170.581H85.6709L80.3572 185.718ZM83.8059 179.797L86.3814 172.302H86.4258L89.0013 179.797H83.8059ZM98.3558 185.718H99.7915V171.99H104.646V170.655H93.4861V171.99H98.341V185.718H98.3558ZM108.11 185.718H109.546V170.64H108.11V185.718ZM120.218 186C123.903 186 126.553 182.913 126.553 178.179C126.553 173.46 123.888 170.358 120.218 170.358C116.547 170.358 113.883 173.46 113.883 178.179C113.868 182.913 116.532 186 120.218 186ZM120.218 184.709C117.376 184.709 115.318 182.29 115.318 178.194C115.318 174.098 117.376 171.694 120.218 171.694C123.059 171.694 125.117 174.098 125.117 178.194C125.102 182.275 123.059 184.709 120.218 184.709ZM131.156 185.718H132.518V172.911H132.562L141.117 185.718H142.39V170.64H141.028V183.062H140.984L132.695 170.64H131.156V185.718ZM146.298 185.718H147.704L149.317 181.073H155.401L156.999 185.718H158.509L153.181 170.581H151.612L146.298 185.718ZM149.747 179.797L152.322 172.302H152.366L154.942 179.797H149.747ZM162.505 185.718H171.298V184.397H163.941V170.655H162.491V185.718H162.505ZM179.927 185.718H181.348V178.951H185.093L188.778 185.718H190.406L186.602 178.787C188.778 178.387 190.199 177.155 190.199 174.721C190.199 172.079 188.334 170.64 184.974 170.64H179.942V185.718H179.927ZM181.348 177.674V171.976H184.841C187.357 171.976 188.748 172.718 188.748 174.795C188.748 176.977 187.342 177.689 184.87 177.689H181.348V177.674ZM194.773 185.718H204.172V184.397H196.208V178.402H201.833V177.096H196.208V171.976H203.742V170.64H194.758V185.718H194.773ZM206.022 185.718H207.428L209.041 181.073H215.14L216.738 185.718H218.248L212.919 170.581H211.35L206.022 185.718ZM209.485 179.797L212.061 172.302H212.105L214.681 179.797H209.485ZM221.874 185.718H230.666V184.397H223.31V170.655H221.874V185.718ZM234.692 185.718H236.128V171.99H240.983V170.655H229.837V171.99H234.692V185.718ZM247.673 185.718H249.124V179.069L254.186 170.64H252.646L248.443 177.838L244.21 170.64H242.641L247.673 179.069V185.718Z" fill="#102448"/>
<path d="M0.325562 21.7121C0.325562 8.94901 7.31186 0 17.8209 0C26.3466 0 31.0682 5.07556 33.0516 12.8818L29.1885 13.8465C27.3087 7.18296 24.1856 3.71021 17.7617 3.71021C9.6357 3.71021 4.35157 10.7744 4.35157 21.5934C4.35157 33.2731 9.6949 40.1147 17.8801 40.1147C24.1264 40.1147 28.0487 36.4639 29.8693 29.3997L33.7325 30.2604C31.6899 38.5861 26.2282 43.7656 17.8209 43.7656C7.19345 43.7507 0.325562 35.1579 0.325562 21.7121Z" fill="#102448"/>
<path d="M37.3737 53.8424L38.2765 50.5923C39.135 50.8149 40.4376 51.0523 42.421 51.0523C45.6625 51.0523 47.3055 49.6276 48.5636 46.4368L49.8069 43.1273L38.2173 12.9263H42.421L51.7459 38.2744H51.8643L61.13 12.9263H65.2153L52.3232 46.422C50.325 51.7944 48.0455 54.4657 42.3174 54.4657C40.0379 54.4657 38.5578 54.1837 37.3737 53.8424Z" fill="#102448"/>
<path d="M70.5586 12.9263H74.481V17.2004C76.864 14.633 79.9871 12.3623 84.4868 12.3623C91.3695 12.3623 96.8164 17.4379 96.8164 27.9155C96.8164 38.3931 91.3103 43.4687 84.1464 43.4687C80.2832 43.4687 77.1601 41.5839 74.481 38.8532V54.347H70.5586V12.9263ZM92.8792 27.9748C92.8792 19.6491 88.794 15.7312 83.7911 15.7312C80.0908 15.7312 77.3081 17.6605 74.4662 20.688V35.2765C77.4265 38.4079 80.3128 40.174 83.7911 40.174C89.0753 40.174 92.8792 36.4638 92.8792 27.9748Z" fill="#102448"/>
<path d="M103.684 12.9264H107.607V18.8479H107.725C110.049 15.1377 113.69 12.3477 119.596 12.3477H120.277L119.877 15.9985C119.877 15.9985 118.797 15.9391 118.678 15.9391C113.794 15.9391 109.931 18.6698 107.592 23.4041V42.9494H103.67V12.9264H103.684Z" fill="#102448"/>
<path d="M125.369 34.6384V12.9263H129.291V33.9557C129.291 38.1705 131.112 40.2185 135.256 40.2185C139.06 40.2185 142.301 38.1705 145.661 34.9797V12.9263H149.643V42.9492H145.661V38.215C142.76 41.0645 138.956 43.5726 134.294 43.5726C128.329 43.5874 125.369 40.2185 125.369 34.6384Z" fill="#102448"/>
<path d="M155.667 38.1705L158.169 35.885C160.448 38.5118 163.334 40.2185 167.494 40.2185C172.615 40.2185 175.279 38.3337 175.279 34.9797C175.279 31.6702 172.896 30.3642 167.035 28.9989C160.152 27.2922 156.629 25.4667 156.629 20.2279C156.629 15.9538 160.33 12.3623 166.798 12.3623C171.919 12.3623 175.205 14.069 177.884 16.6958L175.664 19.3226C173.384 17.0372 170.543 15.6124 166.916 15.6124C162.254 15.6124 160.433 17.7792 160.433 20.0498C160.433 22.9586 162.476 24.1459 167.701 25.4074C175.205 27.2328 179.068 29.0582 179.068 34.9204C179.068 40.3966 174.184 43.528 167.419 43.528C162.076 43.528 157.932 41.2574 155.667 38.1705Z" fill="#102448"/>
</svg>
