<svg width="369" height="65" viewBox="0 0 369 65" fill="none" xmlns="http://www.w3.org/2000/svg">
<path d="M158.786 0H157.799V64.3794H158.786V0Z" fill="#102448"/>
<path d="M349.642 9.75781L345.169 20.4928H346.217L354.73 9.75781H349.642Z" fill="#102448"/>
<path d="M191.309 35.7749C188.443 35.7749 185.912 35.0682 184.05 34.1219L182.189 35.7749H181.326L180.756 25.2795L181.755 25.1873C184.764 31.9958 188.3 34.1711 191.595 34.1711C195.032 34.1711 197.036 31.9467 197.036 28.9664C197.036 26.1275 195.938 24.7572 191.446 22.9137C189.92 22.2993 188.151 21.6848 186.668 20.9781C183.324 19.3252 181.556 16.7198 181.556 13.2725C181.556 7.64383 186.476 4.23959 191.297 4.23959C193.686 4.23959 195.305 4.90323 196.887 5.80038L198.749 4.19043H199.561L200.374 13.4568L199.419 13.5982C196.794 8.3935 193.977 5.84339 190.875 5.84339C188.151 5.84339 186.34 7.63768 186.34 10.4274C186.34 12.6519 187.295 14.354 190.683 15.8226C192.352 16.5784 194.312 17.2421 196.081 18.0901C199.946 19.9335 201.764 22.3484 201.764 25.8448C201.77 32.088 196.465 35.7749 191.309 35.7749Z" fill="#102448"/>
<path d="M216.574 14.3053C213.23 14.3053 211.176 17.9922 211.176 24.475C211.176 30.8595 213.373 34.4972 216.76 34.4972C220.247 34.4972 222.158 30.8103 222.158 24.3337C222.158 17.9492 220.105 14.3053 216.574 14.3053ZM216.382 35.8245C209.123 35.8245 205.543 30.669 205.543 24.3767C205.543 18.5575 209.644 12.978 217.002 12.978C224.262 12.978 227.749 18.0844 227.749 24.3275C227.749 30.1959 223.734 35.8245 216.382 35.8245Z" fill="#102448"/>
<path d="M238.11 35.6338C234.338 35.6338 233.146 33.7903 233.146 30.3861V16.2468H229.616V15.5893L234.009 12.1359L237.496 7.64404H238.209V13.7889H245.469V16.2468H238.209V28.4996C238.209 30.3922 238.495 31.5229 239.45 32.1865C240.263 32.7519 241.361 32.9423 242.937 32.9423C243.7 32.9423 244.656 32.8932 245.562 32.844L245.611 33.5077C243.744 34.6383 240.685 35.6338 238.11 35.6338Z" fill="#102448"/>
<path d="M260.409 16.5786C258.597 16.5786 257.214 16.9104 255.445 17.7646V33.4155L258.12 34.4109V35.0746H247.33V34.4109L250.339 33.4155V4.84811L247.044 2.722V2.24885L255.259 0.0244141L255.452 0.165745V16.7199L255.644 16.8121C258.461 14.1637 261.036 12.9839 263.617 12.9839C267.916 12.9839 269.728 16.1976 269.728 19.5589V33.4155L272.737 34.4109V35.0746H261.941V34.4109L264.622 33.4155V21.4945C264.616 18.4221 263.369 16.5786 260.409 16.5786Z" fill="#102448"/>
<path d="M289.303 21.1627C289.111 16.7199 287.82 14.305 285.004 14.305C282.23 14.305 280.083 17.187 279.848 21.5867L289.303 21.1627ZM279.798 22.7726C279.798 28.7823 281.517 32.7027 286.915 32.7027C289.303 32.7027 291.258 32.2295 294.124 31.191L294.41 31.7564C291.5 34.2635 288.249 35.8242 285.196 35.8242C278.656 35.8242 274.357 31.3754 274.357 24.8066C274.357 18.0472 279.519 12.9839 285.339 12.9839C291.642 12.9839 294.701 17.1931 294.652 22.7726H279.798Z" fill="#102448"/>
<path d="M308.165 16.2959C306.732 16.2959 305.54 16.5786 304.393 17.0518V32.039C305.869 33.5568 307.78 34.2143 309.598 34.2143C312.415 34.2143 314.754 31.7072 314.754 25.04C314.754 19.1779 312.223 16.2959 308.165 16.2959ZM307.352 35.8242C304.87 35.8242 301.576 35.2528 299.28 34.5953V4.84811L295.936 2.722V2.24884L304.194 0.0244141L304.386 0.165745V16.0071L304.579 16.0993C306.248 14.4463 308.537 12.9777 311.503 12.9777C316.038 12.9777 320.146 17.0948 320.146 23.8541C320.152 30.6196 314.996 35.8242 307.352 35.8242Z" fill="#102448"/>
<path d="M333.237 36.5312C330.849 42.3504 328.609 44.9005 325.643 44.9005C323.111 44.9005 321.92 43.4319 321.92 41.9203C321.92 40.4516 323.26 39.2288 324.781 39.2288C326.406 39.2288 327.362 40.0768 328.509 41.4963C329.415 40.5069 330.513 38.8048 331.134 37.4714L331.947 35.6771L323.496 15.4852L320.58 14.3484V13.7339H332.232V14.3484L329.18 15.4852L334.335 29.3418H334.571L339.249 15.817L336.482 14.3484V13.7339H344.691V14.3484L341.589 15.9092L333.237 36.5312Z" fill="#102448"/>
<path d="M360.456 35.8242C357.832 35.8242 355.586 35.3941 353.389 34.5461L353.34 28.303L354.295 28.2108C356.87 32.7027 358.831 34.4048 361.362 34.4048C363.608 34.4048 364.992 32.9853 364.992 30.8101C364.992 28.3521 362.46 27.4058 359.737 26.3182C356.727 25.0401 353.526 23.6206 353.526 19.7002C353.526 15.9641 356.87 12.9839 361.741 12.9839C363.602 12.9839 366.227 13.3649 367.517 13.838L367.66 19.4667L366.754 19.7063C364.415 15.8781 362.889 14.4095 360.686 14.4095C358.682 14.4095 357.441 15.7368 357.441 17.4327C357.441 19.8907 360.016 20.8861 362.74 21.9738C365.749 23.2027 369 24.6222 369 28.6409C369.006 33.0345 365.091 35.8242 360.456 35.8242Z" fill="#102448"/>
<path d="M181.364 64.3735H182.431V53.3681H181.364V64.3735ZM186.278 64.3735H187.289V55.0149H187.32L193.642 64.3735H194.592V53.3681H193.587V62.4379H193.556L187.425 53.3681H186.284V64.3735H186.278ZM200.573 64.3735H201.64V54.3451H205.232V53.3681H196.987V54.3451H200.579V64.3735H200.573ZM207.627 64.3735H214.576V63.4026H208.688V59.0275H212.852V58.075H208.688V54.339H214.26V53.362H207.621V64.3735H207.627ZM217.468 64.3735H218.516V59.4331H221.277L223.995 64.3735H225.198L222.388 59.3163C223.995 59.0213 225.043 58.1304 225.043 56.3422C225.043 54.4066 223.66 53.3681 221.184 53.3681H217.461V64.3735H217.468ZM218.516 58.4929V54.3267H221.097C222.959 54.3267 223.982 54.8613 223.982 56.3791C223.982 57.9706 222.946 58.4868 221.116 58.4868H218.516V58.4929ZM228.741 64.3735H229.746V55.0149H229.777L236.1 64.3735H237.043V53.3681H236.038V62.4379H236.007L229.883 53.3681H228.741V64.3735ZM239.916 64.3735H240.952L242.137 60.9816H246.641L247.826 64.3735H248.937L245.003 53.3251H243.849L239.916 64.3735ZM242.466 60.0414L244.377 54.5663H244.408L246.312 60.0414H242.466ZM253.218 64.3735H254.285V54.3451H257.878V53.3681H249.632V54.3451H253.224V64.3735H253.218ZM260.428 64.3735H261.495V53.3681H260.428V64.3735ZM269.375 64.5763C272.092 64.5763 274.059 62.315 274.059 58.8677C274.059 55.4205 272.092 53.1592 269.375 53.1592C266.657 53.1592 264.69 55.4205 264.69 58.8677C264.69 62.3211 266.657 64.5763 269.375 64.5763ZM269.375 63.63C267.271 63.63 265.757 61.8603 265.757 58.8739C265.757 55.8813 267.277 54.1301 269.375 54.1301C271.478 54.1301 272.992 55.8875 272.992 58.8739C272.998 61.8603 271.478 63.63 269.375 63.63ZM277.471 64.3735H278.476V55.0149H278.508L284.824 64.3735H285.773V53.3681H284.768V62.4379H284.737L278.613 53.3681H277.471V64.3735ZM288.658 64.3735H289.694L290.879 60.9816H295.384L296.569 64.3735H297.679L293.746 53.3251H292.592L288.658 64.3735ZM291.208 60.0414L293.119 54.5663H293.15L295.055 60.0414H291.208ZM300.639 64.3735H307.141V63.4026H301.706V53.3681H300.639V64.3735ZM313.507 64.3735H314.556V59.4331H317.317L320.034 64.3735H321.232L318.427 59.3163C320.034 59.0213 321.083 58.1304 321.083 56.3422C321.083 54.4066 319.705 53.3681 317.224 53.3681H313.501V64.3735H313.507ZM314.562 58.4929V54.3267H317.143C319.004 54.3267 320.028 54.8613 320.028 56.3791C320.028 57.9706 318.992 58.4868 317.162 58.4868H314.562V58.4929ZM324.489 64.3735H331.444V63.4026H325.556V59.0275H329.713V58.075H325.556V54.339H331.128V53.362H324.489V64.3735ZM332.803 64.3735H333.839L335.024 60.9816H339.529L340.714 64.3735H341.824L337.891 53.3251H336.737L332.803 64.3735ZM335.359 60.0414L337.264 54.5663H337.295L339.2 60.0414H335.359ZM344.517 64.3735H351.019V63.4026H345.584V53.3681H344.517V64.3735ZM353.991 64.3735H355.059V54.3451H358.651V53.3681H350.405V54.3451H353.991V64.3735ZM363.59 64.3735H364.657V59.5252L368.398 53.3681H367.257L364.148 58.6219L361.021 53.3681H359.867L363.59 59.5252V64.3735Z" fill="#102448"/>
<path d="M0 28.8441C0 19.2766 5.30484 12.5664 13.2838 12.5664C19.7551 12.5664 23.3351 16.3701 24.8428 22.2199L21.9081 22.945C20.4872 17.9493 18.1109 15.3377 13.2404 15.3377C7.07313 15.3377 3.05882 20.6346 3.05882 28.7519C3.05882 37.5083 7.11656 42.6331 13.3273 42.6331C18.0737 42.6331 21.0456 39.8986 22.4293 34.6018L25.364 35.2408C23.8129 41.4779 19.6683 45.3675 13.2838 45.3675C5.21798 45.3798 0 38.9277 0 28.8441Z" fill="#102448"/>
<path d="M28.0939 52.9446L28.7826 50.5112C29.4279 50.6833 30.4206 50.8553 31.9345 50.8553C34.3915 50.8553 35.6448 49.7861 36.5941 47.3958L37.5434 44.9194L28.7454 22.2695H31.9345L39.0076 41.2817H39.0945L46.1242 22.2695H49.2326L39.442 47.3896C37.9343 51.4022 36.2032 53.4116 31.8477 53.4116C30.1228 53.4116 28.9998 53.1965 28.0939 52.9446Z" fill="#102448"/>
<path d="M53.2594 22.269H56.2376V25.4705C58.0493 23.5471 60.4194 21.8389 63.8319 21.8389C69.0498 21.8389 73.1944 25.6425 73.1944 33.5018C73.1944 41.361 69.0126 45.1647 63.5775 45.1647C60.6427 45.1647 58.2726 43.7575 56.2438 41.7051V53.325H53.2656V22.269H53.2594ZM70.2101 33.5448C70.2101 27.3078 67.1016 24.3582 63.3107 24.3582C60.5062 24.3582 58.3905 25.8084 56.2376 28.0759V39.0137C58.4836 41.361 60.68 42.6883 63.3107 42.6883C67.3188 42.6883 70.2101 39.9108 70.2101 33.5448Z" fill="#102448"/>
<path d="M78.3813 22.269H81.3595V26.7117H81.4463C83.2146 23.9343 85.9756 21.8389 90.4615 21.8389H90.9764L90.6724 24.5733C90.6724 24.5733 89.8534 24.5303 89.7665 24.5303C86.0563 24.5303 83.1215 26.5827 81.3532 30.1283V44.7837H78.3751V22.269H78.3813Z" fill="#102448"/>
<path d="M94.817 38.5472V22.2695H97.7952V38.031C97.7952 41.1895 99.1726 42.7318 102.324 42.7318C105.216 42.7318 107.673 41.1956 110.217 38.7991V22.2695H113.238V44.7842H110.217V41.2386C108.014 43.3771 105.129 45.2512 101.592 45.2512C97.0569 45.2512 94.817 42.7318 94.817 38.5472Z" fill="#102448"/>
<path d="M117.78 41.1951L119.679 39.4868C121.404 41.4532 123.606 42.7313 126.752 42.7313C130.636 42.7313 132.658 41.3241 132.658 38.7986C132.658 36.3222 130.847 35.3391 126.404 34.3129C121.186 33.0286 118.512 31.6645 118.512 27.7318C118.512 24.5303 121.317 21.8389 126.231 21.8389C130.115 21.8389 132.615 23.1231 134.644 25.0833L132.962 27.0497C131.238 25.3414 129.078 24.2722 126.317 24.2722C122.781 24.2722 121.397 25.8945 121.397 27.6027C121.397 29.7841 122.948 30.6813 126.919 31.6214C132.615 32.9856 135.544 34.3559 135.544 38.7556C135.544 42.8542 131.833 45.2077 126.702 45.2077C122.657 45.2077 119.505 43.4994 117.78 41.1951Z" fill="#102448"/>
</svg>
