<svg width="366" height="64" viewBox="0 0 366 64" fill="none" xmlns="http://www.w3.org/2000/svg">
<path d="M157.369 0H156.391V63.8051H157.369V0Z" fill="white"/>
<path d="M346.523 9.67096L342.089 20.3102H343.129L351.565 9.67096H346.523Z" fill="white"/>
<path d="M189.603 35.4561C186.762 35.4561 184.253 34.7558 182.408 33.8179L180.564 35.4561H179.709L179.143 25.0544L180.133 24.963C183.115 31.7108 186.62 33.8666 189.886 33.8666C193.292 33.8666 195.278 31.662 195.278 28.7084C195.278 25.8948 194.19 24.5367 189.738 22.7097C188.225 22.1007 186.473 21.4917 185.003 20.7913C181.689 19.1531 179.936 16.571 179.936 13.1545C179.936 7.576 184.813 4.20213 189.59 4.20213C191.958 4.20213 193.563 4.85985 195.131 5.749L196.976 4.15341H197.781L198.587 13.3372L197.64 13.4772C195.039 8.31898 192.247 5.79163 189.172 5.79163C186.473 5.79163 184.677 7.56991 184.677 10.3348C184.677 12.5394 185.624 14.2263 188.982 15.6818C190.636 16.4309 192.579 17.0886 194.331 17.929C198.162 19.756 199.964 22.1494 199.964 25.6146C199.97 31.8021 194.713 35.4561 189.603 35.4561Z" fill="white"/>
<path d="M214.642 14.1776C211.328 14.1776 209.292 17.8316 209.292 24.2565C209.292 30.5841 211.469 34.1894 214.827 34.1894C218.282 34.1894 220.176 30.5354 220.176 24.1165C220.176 17.7889 218.141 14.1776 214.642 14.1776ZM214.452 35.5048C207.257 35.5048 203.709 30.3953 203.709 24.1591C203.709 18.3919 207.774 12.8621 215.066 12.8621C222.261 12.8621 225.717 17.9229 225.717 24.1104C225.717 29.9264 221.738 35.5048 214.452 35.5048Z" fill="white"/>
<path d="M235.986 35.316C232.247 35.316 231.066 33.489 231.066 30.1152V16.102H227.568V15.4504L231.921 12.0278L235.377 7.57599H236.084V13.666H243.279V16.102H236.084V28.2455C236.084 30.1212 236.367 31.2418 237.314 31.8995C238.12 32.4598 239.208 32.6486 240.77 32.6486C241.526 32.6486 242.473 32.5999 243.371 32.5512L243.42 33.2089C241.569 34.3294 238.538 35.316 235.986 35.316Z" fill="white"/>
<path d="M258.086 16.4309C256.29 16.4309 254.919 16.7597 253.167 17.6062V33.1175L255.817 34.1041V34.7618H245.123V34.1041L248.106 33.1175V4.80502L244.841 2.69787V2.22894L252.982 0.024353L253.173 0.164423V16.5709L253.363 16.6623C256.155 14.0375 258.707 12.8682 261.265 12.8682C265.526 12.8682 267.322 16.0533 267.322 19.3845V33.1175L270.304 34.1041V34.7618H259.605V34.1041L262.261 33.1175V21.3029C262.255 18.2579 261.019 16.4309 258.086 16.4309Z" fill="white"/>
<path d="M286.722 20.974C286.532 16.571 285.253 14.1776 282.461 14.1776C279.712 14.1776 277.585 17.0338 277.351 21.3942L286.722 20.974ZM277.302 22.5696C277.302 28.5257 279.005 32.4111 284.355 32.4111C286.722 32.4111 288.659 31.9422 291.5 30.9129L291.783 31.4732C288.899 33.958 285.677 35.5048 282.652 35.5048C276.171 35.5048 271.909 31.0956 271.909 24.5854C271.909 17.8864 277.025 12.8682 282.793 12.8682C289.041 12.8682 292.072 17.0399 292.023 22.5696H277.302Z" fill="white"/>
<path d="M305.416 16.1507C303.995 16.1507 302.815 16.4309 301.677 16.8998V31.7533C303.14 33.2576 305.034 33.9092 306.836 33.9092C309.628 33.9092 311.946 31.4245 311.946 24.8168C311.946 19.0069 309.437 16.1507 305.416 16.1507ZM304.61 35.5048C302.15 35.5048 298.885 34.9384 296.61 34.2868V4.80502L293.296 2.69787V2.22894L301.48 0.024353L301.671 0.164423V15.8645L301.861 15.9558C303.516 14.3176 305.785 12.8621 308.724 12.8621C313.219 12.8621 317.29 16.9424 317.29 23.6414C317.296 30.3465 312.186 35.5048 304.61 35.5048Z" fill="white"/>
<path d="M330.264 36.2051C327.897 41.9724 325.677 44.4998 322.738 44.4998C320.229 44.4998 319.048 43.0442 319.048 41.5461C319.048 40.0906 320.377 38.8787 321.883 38.8787C323.494 38.8787 324.441 39.7191 325.579 41.1259C326.477 40.1454 327.565 38.4585 328.18 37.1369L328.985 35.3586L320.61 15.3468L317.72 14.2202V13.6112H329.268V14.2202L326.243 15.3468L331.353 29.0798H331.587L336.223 15.6757L333.48 14.2202V13.6112H341.616V14.2202L338.541 15.767L330.264 36.2051Z" fill="white"/>
<path d="M357.241 35.5048C354.64 35.5048 352.414 35.0785 350.237 34.2381L350.188 28.0506L351.135 27.9593C353.687 32.4111 355.63 34.098 358.139 34.098C360.365 34.098 361.736 32.6912 361.736 30.5354C361.736 28.0994 359.227 27.1615 356.528 26.0836C353.545 24.8168 350.372 23.41 350.372 19.5246C350.372 15.8219 353.687 12.8682 358.514 12.8682C360.358 12.8682 362.96 13.2458 364.239 13.7147L364.38 19.2932L363.482 19.5307C361.164 15.7366 359.651 14.2811 357.468 14.2811C355.482 14.2811 354.252 15.5966 354.252 17.2774C354.252 19.7134 356.804 20.7 359.504 21.7779C362.486 22.9959 365.708 24.4027 365.708 28.3856C365.714 32.74 361.834 35.5048 357.241 35.5048Z" fill="white"/>
<path d="M179.746 63.799H180.804V52.8918H179.746V63.799ZM184.616 63.799H185.618V54.5239H185.649L191.915 63.799H192.856V52.8918H191.86V61.8807H191.829L185.754 52.8918H184.622V63.799H184.616ZM198.784 63.799H199.841V53.8601H203.402V52.8918H195.229V53.8601H198.79V63.799H198.784ZM205.775 63.799H212.662V62.8368H206.827V58.5007H210.953V57.5568H206.827V53.854H212.349V52.8857H205.769V63.799H205.775ZM215.528 63.799H216.567V58.9027H219.303L221.997 63.799H223.19L220.404 58.7869C221.997 58.4946 223.036 57.6116 223.036 55.8394C223.036 53.921 221.665 52.8918 219.211 52.8918H215.522V63.799H215.528ZM216.567 57.9709V53.8419H219.125C220.97 53.8419 221.984 54.3717 221.984 55.8759C221.984 57.4532 220.957 57.9648 219.143 57.9648H216.567V57.9709ZM226.701 63.799H227.697V54.5239H227.728L233.994 63.799H234.928V52.8918H233.932V61.8807H233.901L227.832 52.8918H226.701V63.799ZM237.775 63.799H238.802L239.977 60.4373H244.441L245.616 63.799H246.716L242.818 52.8492H241.674L237.775 63.799ZM240.303 59.5056L242.197 54.0794H242.227L244.115 59.5056H240.303ZM250.959 63.799H252.017V53.8601H255.577V52.8918H247.405V53.8601H250.965V63.799H250.959ZM258.104 63.799H259.162V52.8918H258.104V63.799ZM266.972 64C269.665 64 271.614 61.7589 271.614 58.3424C271.614 54.9259 269.665 52.6848 266.972 52.6848C264.278 52.6848 262.329 54.9259 262.329 58.3424C262.329 61.765 264.278 64 266.972 64ZM266.972 63.0621C264.887 63.0621 263.387 61.3082 263.387 58.3485C263.387 55.3826 264.893 53.647 266.972 53.647C269.056 53.647 270.556 55.3887 270.556 58.3485C270.563 61.3082 269.056 63.0621 266.972 63.0621ZM274.996 63.799H275.992V54.5239H276.023L282.283 63.799H283.224V52.8918H282.228V61.8807H282.197L276.128 52.8918H274.996V63.799ZM286.083 63.799H287.11L288.284 60.4373H292.749L293.923 63.799H295.024L291.125 52.8492H289.982L286.083 63.799ZM288.61 59.5056L290.504 54.0794H290.535L292.423 59.5056H288.61ZM297.957 63.799H304.401V62.8368H299.015V52.8918H297.957V63.799ZM310.71 63.799H311.75V58.9027H314.486L317.179 63.799H318.366L315.587 58.7869C317.179 58.4946 318.218 57.6116 318.218 55.8394C318.218 53.921 316.853 52.8918 314.394 52.8918H310.704V63.799H310.71ZM311.756 57.9709V53.8419H314.314C316.159 53.8419 317.173 54.3717 317.173 55.8759C317.173 57.4532 316.146 57.9648 314.332 57.9648H311.756V57.9709ZM321.594 63.799H328.488V62.8368H322.652V58.5007H326.772V57.5568H322.652V53.854H328.174V52.8857H321.594V63.799ZM329.834 63.799H330.861L332.036 60.4373H336.5L337.674 63.799H338.775L334.877 52.8492H333.733L329.834 63.799ZM332.368 59.5056L334.255 54.0794H334.286L336.174 59.5056H332.368ZM341.444 63.799H347.888V62.8368H342.501V52.8918H341.444V63.799ZM350.834 63.799H351.891V53.8601H355.452V52.8918H347.279V53.8601H350.834V63.799ZM360.346 63.799H361.404V58.994L365.112 52.8918H363.98L360.9 58.0988L357.801 52.8918H356.657L360.346 58.994V63.799Z" fill="white"/>
<path d="M0 28.5866C0 19.1044 5.25752 12.4541 13.1653 12.4541C19.5789 12.4541 23.1269 16.2238 24.6212 22.0215L21.7126 22.7401C20.3045 17.789 17.9494 15.2007 13.1223 15.2007C7.01003 15.2007 3.03153 20.4503 3.03153 28.4952C3.03153 37.1735 7.05307 42.2526 13.2084 42.2526C17.9125 42.2526 20.8579 39.5425 22.2292 34.2929L25.1377 34.9263C23.6004 41.1076 19.4928 44.9626 13.1653 44.9626C5.17143 44.9748 0 38.5803 0 28.5866Z" fill="white"/>
<path d="M27.8433 52.4716L28.5258 50.06C29.1653 50.2305 30.1492 50.401 31.6496 50.401C34.0846 50.401 35.3268 49.3413 36.2676 46.9723L37.2084 44.5181L28.4889 22.0703H31.6496L38.6596 40.9128H38.7457L45.7127 22.0703H48.7934L39.09 46.9662C37.5958 50.943 35.8802 52.9345 31.5635 52.9345C29.854 52.9345 28.741 52.7213 27.8433 52.4716Z" fill="white"/>
<path d="M52.7842 22.0703H55.7358V25.2432C57.5313 23.337 59.8803 21.644 63.2623 21.644C68.4337 21.644 72.5414 25.4137 72.5414 33.2028C72.5414 40.9919 68.3969 44.7617 63.0102 44.7617C60.1017 44.7617 57.7527 43.367 55.7419 41.333V52.8492H52.7903V22.0703H52.7842ZM69.5836 33.2454C69.5836 27.0641 66.5029 24.1409 62.7458 24.1409C59.9664 24.1409 57.8695 25.5781 55.7358 27.8253V38.6656C57.9618 40.9919 60.1386 42.3074 62.7458 42.3074C66.7181 42.3074 69.5836 39.5547 69.5836 33.2454Z" fill="white"/>
<path d="M77.6819 22.0703H80.6335V26.4733H80.7196C82.4721 23.7206 85.2085 21.644 89.6543 21.644H90.1647L89.8634 24.354C89.8634 24.354 89.0517 24.3114 88.9656 24.3114C85.2884 24.3114 82.3799 26.3454 80.6274 29.8594V44.3841H77.6758V22.0703H77.6819Z" fill="white"/>
<path d="M93.9712 38.2027V22.0703H96.9228V37.6912C96.9228 40.8214 98.2879 42.35 101.412 42.35C104.277 42.35 106.712 40.8275 109.233 38.4524V22.0703H112.228V44.3841H109.233V40.8701C107.05 42.9895 104.191 44.8469 100.686 44.8469C96.191 44.8469 93.9712 42.35 93.9712 38.2027Z" fill="white"/>
<path d="M116.729 40.8275L118.611 39.1345C120.32 41.0833 122.503 42.35 125.621 42.35C129.47 42.35 131.475 40.9554 131.475 38.4524C131.475 35.9981 129.679 35.0237 125.277 34.0067C120.105 32.7339 117.455 31.3819 117.455 27.4843C117.455 24.3114 120.234 21.644 125.104 21.644C128.954 21.644 131.432 22.9168 133.443 24.8595L131.776 26.8083C130.067 25.1153 127.927 24.0556 125.19 24.0556C121.685 24.0556 120.314 25.6634 120.314 27.3564C120.314 29.5183 121.851 30.4075 125.787 31.3393C131.432 32.6912 134.334 34.0493 134.334 38.4098C134.334 42.4718 130.657 44.8043 125.572 44.8043C121.562 44.8043 118.439 43.1113 116.729 40.8275Z" fill="white"/>
</svg>
