<svg xmlns="http://www.w3.org/2000/svg" x="0px" y="0px" viewBox="0 0 18.78 24" style="enable-background:new 0 0 18.78 24;" xml:space="preserve">
	<path style="fill:#5351CB;" d="M18.71,4.41c0-0.18-0.15-0.33-0.33-0.33c-0.06,0-5.73-0.21-8.69-3.89c-0.04-0.07-0.1-0.13-0.19-0.16
		C9.45,0,9.38-0.01,9.32,0.01c-0.02,0-0.03,0.01-0.05,0.01C9.2,0.05,9.14,0.1,9.1,0.16c-2.95,3.7-8.64,3.91-8.7,3.91
		C0.22,4.08,0.08,4.23,0.08,4.41C0.06,5.54-0.09,15.47,0.08,16.4c0.16,0.9,5.78,5.1,9.11,7.53l0.01-0.01
		c0.01,0.01,0.02,0.02,0.04,0.02l-0.01,0.02C9.28,23.99,9.33,24,9.39,24c0.06,0,0.12-0.02,0.17-0.05c0.02-0.01,0.05-0.03,0.07-0.05
		c3.34-2.43,8.91-6.61,9.07-7.51C18.87,15.47,18.72,5.54,18.71,4.41z M18.05,16.26c-0.23,0.61-4.5,3.95-8.65,6.99
		c-4.16-3.04-8.42-6.38-8.65-6.97c-0.12-0.64-0.06-7.14,0-11.55C2,4.64,6.6,4.08,9.39,0.86c2.79,3.22,7.39,3.77,8.65,3.87
		C18.11,9.14,18.16,15.64,18.05,16.26z"/>
	<path style="fill:#5351CB;" d="M9.28,4.08C9.4,3.93,9.37,3.72,9.23,3.61C9.09,3.49,8.87,3.51,8.76,3.65C6.58,6.34,2.63,6.3,2.6,6.3
		c-0.1,0-0.18,0.03-0.24,0.1c-0.06,0.06-0.1,0.15-0.1,0.24v6.51c0,0.19,0.15,0.34,0.34,0.34c0.19,0,0.34-0.15,0.34-0.34V6.97
		C4,6.92,7.26,6.57,9.28,4.08z"/>
	<path style="fill:#5351CB;" d="M12.64,9.28c-0.14-0.12-0.35-0.1-0.47,0.04l-3.21,3.83l-1.5-1.5c-0.13-0.13-0.34-0.13-0.48,0
		c-0.13,0.13-0.13,0.34,0,0.48l1.76,1.76c0.06,0.06,0.15,0.1,0.24,0.1c0,0,0.01,0,0.01,0c0.09,0,0.18-0.05,0.24-0.12l3.44-4.12
		C12.8,9.61,12.78,9.4,12.64,9.28z"/>
	<path style="fill:#5351CB;" d="M16.49,6.18c-0.19,0-0.34,0.15-0.34,0.34v8.33c-2.51,2.17-6.21,5.35-6.41,5.51
		c-0.15,0.1-0.18,0.31-0.08,0.46c0.06,0.1,0.17,0.15,0.28,0.15c0.06,0,0.13-0.02,0.19-0.06c0.12-0.08,4.18-3.58,6.58-5.65
		c0.07-0.06,0.12-0.16,0.12-0.25V6.51C16.83,6.33,16.68,6.18,16.49,6.18z"/>
</svg>
