<svg xmlns="http://www.w3.org/2000/svg" x="0px" y="0px" viewBox="0 0 38.61 24" style="enable-background:new 0 0 38.61 24;" xml:space="preserve">
<path style="fill:#5351CB;" d="M38.12,5.47H19.65L19.6,5.41l-3.72-4.79c-0.06-0.08-0.16-0.13-0.27-0.13L0.51,0.15c0,0,0,0,0,0
	c-0.25,0-0.35,0.18-0.36,0.34c0,0.19,0.15,0.35,0.34,0.36l14.95,0.33l3.33,4.29h-4.44c-0.05,0-0.09,0.01-0.14,0.03l-0.09,0.04
	l-0.07-0.07c-0.91-0.92-1.71-1.69-2.11-2.06c-0.13-0.13-0.36-0.12-0.49,0.01c-0.13,0.14-0.13,0.36,0.01,0.49
	c2.46,2.34,5.98,5.99,6.12,6.78c0.08,0.5-0.21,1.11-0.72,1.49c-0.24,0.18-0.64,0.4-1.19,0.4c-0.36,0-0.74-0.09-1.12-0.27
	c-0.98-0.38-2.57-1.95-3.1-2.52c-0.09-0.09-0.23-0.13-0.35-0.1c-0.24,0.07-0.5,0.1-0.77,0.1c-2.07,0-4.26-2.02-4.68-2.9
	C5.55,6.7,5.34,6.62,5.17,6.7C5.08,6.74,5.02,6.81,4.99,6.9S4.96,7.08,5,7.16c0.53,1.13,3.01,3.3,5.33,3.3l0.26,0l-0.05,0.22
	l-0.01,4.07l-0.17,0.02c-0.47,0.13-0.94,0.2-1.4,0.2c-2.78,0-4.11-2.58-4.17-2.68c-0.05-0.1-0.16-0.18-0.28-0.19L0.53,11.7
	c-0.02,0-0.03,0-0.04,0c-0.17,0-0.32,0.13-0.34,0.31c-0.01,0.09,0.02,0.18,0.08,0.26s0.14,0.12,0.23,0.13l3.81,0.4l0.04,0.06
	c0.41,0.67,1.96,2.84,4.66,2.84c0.41,0,0.88-0.06,1.38-0.19l0.19-0.05v8.05c0,0.19,0.16,0.35,0.35,0.35h27.24
	c0.19,0,0.35-0.16,0.35-0.35V5.81C38.46,5.62,38.31,5.47,38.12,5.47z M37.77,23.15H11.23V10.57l0.26,0.25
	c0.64,0.64,1.86,1.76,2.77,2.11c1.08,0.51,2.18,0.42,3.01-0.21c0.71-0.54,1.11-1.4,0.98-2.15c-0.07-0.41-0.69-1.46-3.29-4.16
	L14.7,6.16h23.06V23.15z"/>
<g>
	<path style="fill:#5351CB;" d="M12.75,14.13v3.61c0,0.12,0.06,0.22,0.15,0.29l3.42,2.3c0.06,0.04,0.13,0.06,0.19,0.06h15.45
		c0.11,0,0.21-0.05,0.28-0.14l2.18-2.93c0.04-0.06,0.07-0.13,0.07-0.21v-4.55c0-0.08-0.03-0.15-0.07-0.21l-2.55-3.3
		c-0.07-0.08-0.17-0.14-0.28-0.14H19.45c-0.19,0-0.35,0.16-0.35,0.35c0,0.19,0.16,0.35,0.35,0.35h11.97l2.38,3.07V17L31.8,19.7
		H16.63l-3.18-2.14v-3.43c0-0.19-0.16-0.35-0.35-0.35C12.91,13.78,12.75,13.94,12.75,14.13z"/>
	<circle style="fill:#5351CB;" cx="18.5" cy="15.26" r="0.86"/>
	<circle style="fill:#5351CB;" cx="30.77" cy="15.26" r="0.86"/>
	<path style="fill:#5351CB;" d="M24.5,10.51c-2.17,0-3.93,1.76-3.93,3.93c0,2.17,1.76,3.93,3.93,3.93c2.17,0,3.93-1.76,3.93-3.93
		C28.43,12.27,26.66,10.51,24.5,10.51z M24.5,17.67c-1.78,0-3.23-1.45-3.23-3.23c0-1.78,1.45-3.23,3.23-3.23s3.23,1.45,3.23,3.23
		C27.73,16.22,26.28,17.67,24.5,17.67z"/>
</g>
</svg>
