<svg version="1.1" id="Layer_1" xmlns="http://www.w3.org/2000/svg" x="0px" y="0px" viewBox="0 0 31.57 24" style="enable-background:new 0 0 31.57 24;" xml:space="preserve">
	<path style="fill:#5351CB;" d="M10.52,11.26c-0.57,0.03-1,0.51-0.98,1.08c0.01,0.27,0.13,0.53,0.34,0.71
		c0.19,0.17,0.43,0.27,0.69,0.27c0.02,0,0.04,0,0.05,0c0.27-0.01,0.53-0.13,0.71-0.34c0.18-0.2,0.28-0.47,0.26-0.74
		C11.57,11.67,11.08,11.23,10.52,11.26z"/>
	<path style="fill:#5351CB;" d="M18.76,8.25c-0.57,0.03-1,0.51-0.98,1.08c0.01,0.27,0.13,0.53,0.34,0.71
		c0.19,0.17,0.43,0.27,0.69,0.27c0.02,0,0.04,0,0.05,0c0.27-0.01,0.53-0.13,0.71-0.34c0.18-0.2,0.28-0.47,0.26-0.74
		C19.81,8.66,19.32,8.22,18.76,8.25z"/>
	<path style="fill:#5351CB;" d="M22.63,6.79c-0.57,0.03-1,0.51-0.98,1.08c0.01,0.27,0.13,0.53,0.34,0.71
		c0.19,0.17,0.43,0.27,0.69,0.27c0.02,0,0.04,0,0.05,0c0.27-0.01,0.53-0.13,0.71-0.34c0.18-0.2,0.28-0.47,0.26-0.74
		C23.68,7.2,23.19,6.76,22.63,6.79z"/>
	<path style="fill:#5351CB;" d="M26.83,5.13c-0.57,0.03-1,0.51-0.98,1.08c0.01,0.27,0.13,0.53,0.34,0.71
		c0.19,0.17,0.43,0.27,0.69,0.27c0.02,0,0.04,0,0.05,0c0.27-0.01,0.53-0.13,0.71-0.34c0.18-0.2,0.28-0.47,0.26-0.74
		C27.88,5.54,27.39,5.1,26.83,5.13z"/>
	<path style="fill:#5351CB;" d="M31.3,4.25c-0.65-1.56-2.2-2.28-4.16-1.91l0.01,0.04c-0.45,0.1-2.19,0.78-9.66,3.69l0.14-0.2
		L9.29,0.06L9.2,0L5.25,1.3l7.08,6.79C9.92,9.03,8.03,9.77,7.5,9.98C7.05,9.41,5.17,7.09,3.61,6.09C2.54,5.4,1.38,5.67,0.71,6.25
		C0.04,6.82-0.17,7.64,0.15,8.37c0.33,0.9,3.59,7.61,3.72,7.88c0.03,0.07,0.55,1.39,2.79,1.39c0.48,0,1.03-0.06,1.68-0.2
		c0.4-0.07,5.12-2.28,6.23-2.8L13.16,24l3.76-1.31l3.34-10.13l0,0.01c0.36-0.15,8.82-3.6,10.22-4.68
		C31.52,7.19,31.87,5.62,31.3,4.25z M9.13,0.48l1.92,1.34l-3,1.55l0.02,0.04l-2-1.92L9.13,0.48z M8.37,3.69l3.02-1.56l-0.06-0.11
		l5.94,4.14c-0.02,0.01-0.04,0.02-0.06,0.02c-1.57,0.61-3.13,1.22-4.54,1.78l0.07-0.07L8.37,3.69z M15.43,11.86l5.1-1.51l-3.16,9.59
		l-0.04-0.12l-3.27,1.09L15.43,11.86z M16.58,22.35l-2.88,1l0.3-1.96l3.26-1.09L16.58,22.35z M30.23,7.54
		c-1.22,0.94-8.19,3.83-9.8,4.49L21.2,9.7l-5.71,1.68c0.12-0.18,0.18-0.39,0.17-0.62c-0.03-0.57-0.52-1-1.08-0.98
		c-0.57,0.03-1,0.51-0.98,1.08c0.01,0.27,0.13,0.53,0.34,0.71c0.19,0.17,0.43,0.27,0.69,0.27c0.02,0,0.04,0,0.05,0
		c0.11-0.01,0.21-0.03,0.31-0.07l-0.41,2.71l0.14-0.41c0,0-6.16,2.85-6.48,2.92c-3.29,0.74-3.95-0.85-3.98-0.93
		C4.23,16,0.87,9.1,0.55,8.21c-0.3-0.67,0.03-1.28,0.44-1.63C1.54,6.1,2.49,5.88,3.38,6.45c1.68,1.09,3.86,3.89,3.88,3.92l0.1,0.13
		l0.15-0.06c6.62-2.59,19.2-7.52,19.72-7.68c1.74-0.32,3.11,0.29,3.67,1.65C31.39,5.58,31.09,6.95,30.23,7.54z"/>
</svg>
